<mxfile host="Electron" modified="2024-06-01T11:30:51.895Z" agent="Mozilla/5.0 (Macintosh; Intel Mac OS X 10_15_7) AppleWebKit/537.36 (KHTML, like Gecko) draw.io/24.4.8 Chrome/124.0.6367.207 Electron/30.0.6 Safari/537.36" etag="oltVI3vUc3XQ5oV4jgiU" version="24.4.8" type="device" pages="5">
  <diagram id="Rfz-nHKzfFXtIfp8jGCo" name="main">
    <mxGraphModel dx="1050" dy="713" grid="1" gridSize="10" guides="1" tooltips="1" connect="1" arrows="1" fold="1" page="1" pageScale="1" pageWidth="850" pageHeight="1100" math="0" shadow="0">
      <root>
        <mxCell id="0" />
        <mxCell id="1" parent="0" />
        <mxCell id="_-YTuwWALcvk040Sg-yM-1" value="t2t" style="rounded=1;whiteSpace=wrap;html=1;container=1;recursiveResize=0;verticalAlign=top;arcSize=6;fontStyle=1;autosize=0;points=[];absoluteArcSize=1;shadow=1;strokeColor=#6c8ebf;fillColor=#dae8fc;fontFamily=Helvetica;fontSize=11;gradientColor=#0050EF;fontColor=default;" parent="1" vertex="1">
          <mxGeometry x="340" y="120" width="138" height="110" as="geometry">
            <mxRectangle x="-98" y="-1230" width="99" height="26" as="alternateBounds" />
          </mxGeometry>
        </mxCell>
        <mxCell id="_-YTuwWALcvk040Sg-yM-2" value="" style="rounded=1;whiteSpace=wrap;html=1;sketch=0;points=[[0,0.5,0,0,0],[1,0.5,0,0,0]];arcSize=50;fontFamily=Helvetica;fontSize=11;fontColor=default;" parent="_-YTuwWALcvk040Sg-yM-1" vertex="1">
          <mxGeometry x="-16.75" y="27.5" width="36.75" height="25" as="geometry" />
        </mxCell>
        <mxCell id="_-YTuwWALcvk040Sg-yM-3" value="" style="rounded=1;whiteSpace=wrap;html=1;sketch=0;points=[[0,0.5,0,0,0],[1,0.5,0,0,0]];fillColor=#1ba1e2;fontColor=#ffffff;strokeColor=#006EAF;arcSize=50;fontFamily=Helvetica;fontSize=11;" parent="_-YTuwWALcvk040Sg-yM-1" vertex="1">
          <mxGeometry x="120" y="27.5" width="36" height="25" as="geometry" />
        </mxCell>
        <mxCell id="_-YTuwWALcvk040Sg-yM-4" value="✗" style="rounded=1;whiteSpace=wrap;html=1;sketch=0;points=[[0,0.5,0,0,0],[1,0.5,0,0,0]];fillColor=#1ba1e2;fontColor=#ffffff;strokeColor=#006EAF;arcSize=50;fontFamily=Helvetica;fontSize=11;textOpacity=30;" parent="_-YTuwWALcvk040Sg-yM-1" vertex="1">
          <mxGeometry x="120" y="60" width="36" height="25" as="geometry" />
        </mxCell>
        <mxCell id="VTmQtG-PegYEg4OVuffs-2" value="grammar&#xa;name" style="rounded=1;sketch=0;points=[[0,0.5,0,0,0],[1,0.5,0,0,0]];arcSize=50;fontFamily=Helvetica;fontSize=9;fontColor=default;" parent="_-YTuwWALcvk040Sg-yM-1" vertex="1">
          <mxGeometry y="60" width="36.75" height="25" as="geometry" />
        </mxCell>
        <mxCell id="LCIWxbHtnL4AgZjA0z7f-9" value="ohm" style="rounded=1;sketch=0;points=[[0,0.5,0,0,0],[1,0.5,0,0,0]];arcSize=50;fontFamily=Helvetica;fontSize=9;fontColor=default;" parent="_-YTuwWALcvk040Sg-yM-1" vertex="1">
          <mxGeometry x="20" y="70" width="36.75" height="25" as="geometry" />
        </mxCell>
        <mxCell id="LCIWxbHtnL4AgZjA0z7f-10" value="rwr" style="rounded=1;sketch=0;points=[[0,0.5,0,0,0],[1,0.5,0,0,0]];arcSize=50;fontFamily=Helvetica;fontSize=9;fontColor=default;" parent="_-YTuwWALcvk040Sg-yM-1" vertex="1">
          <mxGeometry x="36.75" y="75" width="36.75" height="25" as="geometry" />
        </mxCell>
        <mxCell id="VTmQtG-PegYEg4OVuffs-1" value="support" style="rounded=1;sketch=0;points=[[0,0.5,0,0,0],[1,0.5,0,0,0]];arcSize=50;fontFamily=Helvetica;fontSize=9;fontColor=default;" parent="_-YTuwWALcvk040Sg-yM-1" vertex="1">
          <mxGeometry x="56.75" y="85" width="36.75" height="25" as="geometry" />
        </mxCell>
        <mxCell id="_-YTuwWALcvk040Sg-yM-5" value="" style="rhombus;whiteSpace=wrap;html=1;rounded=1;fontStyle=1;glass=0;sketch=0;fontSize=12;points=[[0,0.5,0,0,0],[0.5,0,0,0,0],[0.5,1,0,0,0],[1,0.5,0,0,0]];shadow=1;fontFamily=Helvetica;fontColor=default;" parent="1" vertex="1">
          <mxGeometry x="20" y="140" width="40" height="40" as="geometry" />
        </mxCell>
        <mxCell id="_-YTuwWALcvk040Sg-yM-6" value="" style="rhombus;whiteSpace=wrap;html=1;rounded=1;fontStyle=1;glass=0;sketch=0;fontSize=12;points=[[0,0.5,0,0,0],[0.5,0,0,0,0],[0.5,1,0,0,0],[1,0.5,0,0,0]];shadow=1;fillColor=#0050ef;fontColor=#ffffff;strokeColor=#001DBC;fontFamily=Helvetica;" parent="1" vertex="1">
          <mxGeometry x="1735" y="140" width="40" height="40" as="geometry" />
        </mxCell>
        <mxCell id="_-YTuwWALcvk040Sg-yM-7" value="✗" style="rhombus;whiteSpace=wrap;html=1;rounded=1;fillColor=#0050ef;fontColor=#ffffff;strokeColor=#001DBC;fontStyle=1;glass=0;sketch=0;fontSize=12;points=[[0,0.5,0,0,0],[0.5,0,0,0,0],[0.5,1,0,0,0],[1,0.5,0,0,0]];shadow=1;opacity=30;textOpacity=30;" parent="1" vertex="1">
          <mxGeometry x="1735" y="220" width="40" height="40" as="geometry" />
        </mxCell>
        <mxCell id="_-YTuwWALcvk040Sg-yM-9" style="edgeStyle=orthogonalEdgeStyle;rounded=1;orthogonalLoop=1;jettySize=auto;html=1;exitX=1;exitY=0.5;exitDx=0;exitDy=0;exitPerimeter=0;entryX=0;entryY=0.5;entryDx=0;entryDy=0;entryPerimeter=0;curved=0;opacity=30;" parent="1" source="_-YTuwWALcvk040Sg-yM-4" target="_-YTuwWALcvk040Sg-yM-7" edge="1">
          <mxGeometry relative="1" as="geometry">
            <Array as="points">
              <mxPoint x="520" y="193" />
              <mxPoint x="520" y="240" />
              <mxPoint x="770" y="240" />
            </Array>
          </mxGeometry>
        </mxCell>
        <mxCell id="VGZLOjveox1qzQNJpgzl-1" value="Read Text File" style="rounded=1;whiteSpace=wrap;html=1;sketch=0;container=1;recursiveResize=0;verticalAlign=top;arcSize=6;fontStyle=1;autosize=0;points=[];absoluteArcSize=1;shadow=1;strokeColor=#001DBC;fillColor=#0050ef;fontColor=#ffffff;fontFamily=Helvetica;fontSize=11;" parent="1" vertex="1">
          <mxGeometry x="130" y="120" width="130" height="110" as="geometry">
            <mxRectangle x="-98" y="-1230" width="99" height="26" as="alternateBounds" />
          </mxGeometry>
        </mxCell>
        <mxCell id="VGZLOjveox1qzQNJpgzl-2" value="" style="rounded=1;whiteSpace=wrap;html=1;sketch=0;points=[[0,0.5,0,0,0],[1,0.5,0,0,0]];arcSize=50;fontFamily=Helvetica;fontSize=11;fontColor=default;" parent="VGZLOjveox1qzQNJpgzl-1" vertex="1">
          <mxGeometry x="-10" y="27.5" width="39.25" height="25" as="geometry" />
        </mxCell>
        <mxCell id="VGZLOjveox1qzQNJpgzl-3" value="" style="rounded=1;whiteSpace=wrap;html=1;sketch=0;points=[[0,0.5,0,0,0],[1,0.5,0,0,0]];fillColor=#1ba1e2;fontColor=#ffffff;strokeColor=#006EAF;arcSize=50;fontFamily=Helvetica;fontSize=11;" parent="VGZLOjveox1qzQNJpgzl-1" vertex="1">
          <mxGeometry x="110" y="27.5" width="35.25" height="25" as="geometry" />
        </mxCell>
        <mxCell id="VGZLOjveox1qzQNJpgzl-4" value="✗" style="rounded=1;whiteSpace=wrap;html=1;sketch=0;points=[[0,0.5,0,0,0],[1,0.5,0,0,0]];fillColor=#1ba1e2;fontColor=#ffffff;strokeColor=#006EAF;arcSize=50;fontFamily=Helvetica;fontSize=11;textOpacity=30;opacity=30;" parent="VGZLOjveox1qzQNJpgzl-1" vertex="1">
          <mxGeometry x="110" y="67.5" width="35.25" height="25" as="geometry" />
        </mxCell>
        <mxCell id="VGZLOjveox1qzQNJpgzl-5" style="edgeStyle=orthogonalEdgeStyle;rounded=0;orthogonalLoop=1;jettySize=auto;html=1;exitX=1;exitY=0.5;exitDx=0;exitDy=0;exitPerimeter=0;entryX=0;entryY=0.5;entryDx=0;entryDy=0;entryPerimeter=0;strokeWidth=2;" parent="1" source="_-YTuwWALcvk040Sg-yM-5" target="VGZLOjveox1qzQNJpgzl-2" edge="1">
          <mxGeometry relative="1" as="geometry" />
        </mxCell>
        <mxCell id="VGZLOjveox1qzQNJpgzl-6" style="edgeStyle=orthogonalEdgeStyle;rounded=0;orthogonalLoop=1;jettySize=auto;html=1;exitX=1;exitY=0.5;exitDx=0;exitDy=0;exitPerimeter=0;strokeWidth=2;" parent="1" source="VGZLOjveox1qzQNJpgzl-3" target="_-YTuwWALcvk040Sg-yM-2" edge="1">
          <mxGeometry relative="1" as="geometry" />
        </mxCell>
        <mxCell id="VGZLOjveox1qzQNJpgzl-7" style="edgeStyle=orthogonalEdgeStyle;rounded=1;orthogonalLoop=1;jettySize=auto;html=1;exitX=1;exitY=0.5;exitDx=0;exitDy=0;exitPerimeter=0;entryX=0;entryY=0.5;entryDx=0;entryDy=0;entryPerimeter=0;curved=0;opacity=30;" parent="1" source="VGZLOjveox1qzQNJpgzl-4" target="_-YTuwWALcvk040Sg-yM-7" edge="1">
          <mxGeometry relative="1" as="geometry">
            <Array as="points">
              <mxPoint x="300" y="200" />
              <mxPoint x="300" y="240" />
            </Array>
          </mxGeometry>
        </mxCell>
        <mxCell id="CZ-6qLe8DsOaRnYPHkps-1" value="pass2" style="rounded=1;whiteSpace=wrap;html=1;container=1;recursiveResize=0;verticalAlign=top;arcSize=6;fontStyle=1;autosize=0;points=[];absoluteArcSize=1;shadow=1;strokeColor=#6c8ebf;fillColor=#dae8fc;fontFamily=Helvetica;fontSize=11;gradientColor=#0050EF;fontColor=default;" parent="1" vertex="1">
          <mxGeometry x="550" y="120" width="138" height="110" as="geometry">
            <mxRectangle x="-98" y="-1230" width="99" height="26" as="alternateBounds" />
          </mxGeometry>
        </mxCell>
        <mxCell id="CZ-6qLe8DsOaRnYPHkps-2" value="" style="rounded=1;whiteSpace=wrap;html=1;sketch=0;points=[[0,0.5,0,0,0],[1,0.5,0,0,0]];arcSize=50;fontFamily=Helvetica;fontSize=11;fontColor=default;" parent="CZ-6qLe8DsOaRnYPHkps-1" vertex="1">
          <mxGeometry x="-16.75" y="27.5" width="36.75" height="25" as="geometry" />
        </mxCell>
        <mxCell id="CZ-6qLe8DsOaRnYPHkps-3" value="" style="rounded=1;whiteSpace=wrap;html=1;sketch=0;points=[[0,0.5,0,0,0],[1,0.5,0,0,0]];fillColor=#1ba1e2;fontColor=#ffffff;strokeColor=#006EAF;arcSize=50;fontFamily=Helvetica;fontSize=11;" parent="CZ-6qLe8DsOaRnYPHkps-1" vertex="1">
          <mxGeometry x="120" y="27.5" width="36" height="25" as="geometry" />
        </mxCell>
        <mxCell id="CZ-6qLe8DsOaRnYPHkps-4" value="✗" style="rounded=1;whiteSpace=wrap;html=1;sketch=0;points=[[0,0.5,0,0,0],[1,0.5,0,0,0]];fillColor=#1ba1e2;fontColor=#ffffff;strokeColor=#006EAF;arcSize=50;fontFamily=Helvetica;fontSize=11;textOpacity=30;" parent="CZ-6qLe8DsOaRnYPHkps-1" vertex="1">
          <mxGeometry x="120" y="60" width="36" height="25" as="geometry" />
        </mxCell>
        <mxCell id="LCIWxbHtnL4AgZjA0z7f-11" value="grammar&#xa;name" style="rounded=1;sketch=0;points=[[0,0.5,0,0,0],[1,0.5,0,0,0]];arcSize=50;fontFamily=Helvetica;fontSize=9;fontColor=default;" parent="CZ-6qLe8DsOaRnYPHkps-1" vertex="1">
          <mxGeometry y="60" width="36.75" height="25" as="geometry" />
        </mxCell>
        <mxCell id="LCIWxbHtnL4AgZjA0z7f-12" value="ohm" style="rounded=1;sketch=0;points=[[0,0.5,0,0,0],[1,0.5,0,0,0]];arcSize=50;fontFamily=Helvetica;fontSize=9;fontColor=default;" parent="CZ-6qLe8DsOaRnYPHkps-1" vertex="1">
          <mxGeometry x="20" y="70" width="36.75" height="25" as="geometry" />
        </mxCell>
        <mxCell id="VTmQtG-PegYEg4OVuffs-7" value="rwr" style="rounded=1;sketch=0;points=[[0,0.5,0,0,0],[1,0.5,0,0,0]];arcSize=50;fontFamily=Helvetica;fontSize=9;fontColor=default;" parent="CZ-6qLe8DsOaRnYPHkps-1" vertex="1">
          <mxGeometry x="36.75" y="80" width="36.75" height="25" as="geometry" />
        </mxCell>
        <mxCell id="VTmQtG-PegYEg4OVuffs-8" value="support" style="rounded=1;sketch=0;points=[[0,0.5,0,0,0],[1,0.5,0,0,0]];arcSize=50;fontFamily=Helvetica;fontSize=9;fontColor=default;" parent="CZ-6qLe8DsOaRnYPHkps-1" vertex="1">
          <mxGeometry x="56.74999999999999" y="85" width="36.75" height="25" as="geometry" />
        </mxCell>
        <mxCell id="CZ-6qLe8DsOaRnYPHkps-5" style="edgeStyle=orthogonalEdgeStyle;rounded=1;orthogonalLoop=1;jettySize=auto;html=1;exitX=1;exitY=0.5;exitDx=0;exitDy=0;exitPerimeter=0;entryX=0;entryY=0.5;entryDx=0;entryDy=0;entryPerimeter=0;curved=0;opacity=30;" parent="1" source="CZ-6qLe8DsOaRnYPHkps-4" target="_-YTuwWALcvk040Sg-yM-7" edge="1">
          <mxGeometry relative="1" as="geometry">
            <Array as="points">
              <mxPoint x="730" y="193" />
              <mxPoint x="730" y="240" />
            </Array>
          </mxGeometry>
        </mxCell>
        <mxCell id="LCIWxbHtnL4AgZjA0z7f-1" value="$ node indenter.js" style="rounded=1;whiteSpace=wrap;html=1;container=1;recursiveResize=0;verticalAlign=top;arcSize=6;fontStyle=1;autosize=0;points=[];absoluteArcSize=1;shadow=1;strokeColor=#6c8ebf;fillColor=#dae8fc;fontFamily=Helvetica;fontSize=11;gradientColor=#0050EF;fontColor=default;" parent="1" vertex="1">
          <mxGeometry x="1520" y="120" width="138" height="100" as="geometry">
            <mxRectangle x="-98" y="-1230" width="99" height="26" as="alternateBounds" />
          </mxGeometry>
        </mxCell>
        <mxCell id="LCIWxbHtnL4AgZjA0z7f-2" value="" style="rounded=1;whiteSpace=wrap;html=1;sketch=0;points=[[0,0.5,0,0,0],[1,0.5,0,0,0]];arcSize=50;fontFamily=Helvetica;fontSize=11;fontColor=default;" parent="LCIWxbHtnL4AgZjA0z7f-1" vertex="1">
          <mxGeometry x="-16.75" y="27.5" width="36.75" height="25" as="geometry" />
        </mxCell>
        <mxCell id="LCIWxbHtnL4AgZjA0z7f-3" value="" style="rounded=1;whiteSpace=wrap;html=1;sketch=0;points=[[0,0.5,0,0,0],[1,0.5,0,0,0]];fillColor=#1ba1e2;fontColor=#ffffff;strokeColor=#006EAF;arcSize=50;fontFamily=Helvetica;fontSize=11;" parent="LCIWxbHtnL4AgZjA0z7f-1" vertex="1">
          <mxGeometry x="120" y="27.5" width="36" height="25" as="geometry" />
        </mxCell>
        <mxCell id="LCIWxbHtnL4AgZjA0z7f-4" value="✗" style="rounded=1;whiteSpace=wrap;html=1;sketch=0;points=[[0,0.5,0,0,0],[1,0.5,0,0,0]];fillColor=#1ba1e2;fontColor=#ffffff;strokeColor=#006EAF;arcSize=50;fontFamily=Helvetica;fontSize=11;textOpacity=30;" parent="LCIWxbHtnL4AgZjA0z7f-1" vertex="1">
          <mxGeometry x="120" y="60" width="36" height="25" as="geometry" />
        </mxCell>
        <mxCell id="LCIWxbHtnL4AgZjA0z7f-7" style="edgeStyle=orthogonalEdgeStyle;rounded=1;orthogonalLoop=1;jettySize=auto;html=1;entryX=0;entryY=0.5;entryDx=0;entryDy=0;entryPerimeter=0;curved=0;opacity=30;" parent="1" source="LCIWxbHtnL4AgZjA0z7f-4" target="_-YTuwWALcvk040Sg-yM-7" edge="1">
          <mxGeometry relative="1" as="geometry">
            <Array as="points">
              <mxPoint x="1690" y="193" />
              <mxPoint x="1690" y="240" />
            </Array>
          </mxGeometry>
        </mxCell>
        <mxCell id="LCIWxbHtnL4AgZjA0z7f-13" value="grammar&#xa;name" style="rhombus;rounded=1;fontStyle=1;glass=0;sketch=0;fontSize=9;points=[[0,0.5,0,0,0],[0.5,0,0,0,0],[0.5,1,0,0,0],[1,0.5,0,0,0]];shadow=1;fontFamily=Helvetica;fontColor=default;" parent="1" vertex="1">
          <mxGeometry x="20" y="280" width="40" height="40" as="geometry" />
        </mxCell>
        <mxCell id="LCIWxbHtnL4AgZjA0z7f-14" value="ohm" style="rhombus;rounded=1;fontStyle=1;glass=0;sketch=0;fontSize=9;points=[[0,0.5,0,0,0],[0.5,0,0,0,0],[0.5,1,0,0,0],[1,0.5,0,0,0]];shadow=1;fontFamily=Helvetica;fontColor=default;" parent="1" vertex="1">
          <mxGeometry x="40" y="310" width="40" height="40" as="geometry" />
        </mxCell>
        <mxCell id="LCIWxbHtnL4AgZjA0z7f-17" style="edgeStyle=orthogonalEdgeStyle;rounded=1;orthogonalLoop=1;jettySize=auto;html=1;exitX=1;exitY=0.5;exitDx=0;exitDy=0;exitPerimeter=0;entryX=0.49;entryY=0.96;entryDx=0;entryDy=0;entryPerimeter=0;curved=0;opacity=30;" parent="1" source="LCIWxbHtnL4AgZjA0z7f-13" target="VTmQtG-PegYEg4OVuffs-2" edge="1">
          <mxGeometry relative="1" as="geometry" />
        </mxCell>
        <mxCell id="LCIWxbHtnL4AgZjA0z7f-18" style="edgeStyle=orthogonalEdgeStyle;rounded=1;orthogonalLoop=1;jettySize=auto;html=1;exitX=1;exitY=0.5;exitDx=0;exitDy=0;exitPerimeter=0;entryX=0.49;entryY=0.96;entryDx=0;entryDy=0;entryPerimeter=0;curved=0;opacity=30;" parent="1" source="LCIWxbHtnL4AgZjA0z7f-14" target="LCIWxbHtnL4AgZjA0z7f-9" edge="1">
          <mxGeometry relative="1" as="geometry" />
        </mxCell>
        <mxCell id="VTmQtG-PegYEg4OVuffs-3" value="rwr" style="rhombus;rounded=1;fontStyle=1;glass=0;sketch=0;fontSize=9;points=[[0,0.5,0,0,0],[0.5,0,0,0,0],[0.5,1,0,0,0],[1,0.5,0,0,0]];shadow=1;fontFamily=Helvetica;fontColor=default;" parent="1" vertex="1">
          <mxGeometry x="20" y="340" width="40" height="40" as="geometry" />
        </mxCell>
        <mxCell id="VTmQtG-PegYEg4OVuffs-4" value="support" style="rhombus;rounded=1;fontStyle=1;glass=0;sketch=0;fontSize=9;points=[[0,0.5,0,0,0],[0.5,0,0,0,0],[0.5,1,0,0,0],[1,0.5,0,0,0]];shadow=1;fontFamily=Helvetica;fontColor=default;" parent="1" vertex="1">
          <mxGeometry x="50" y="360" width="40" height="40" as="geometry" />
        </mxCell>
        <mxCell id="VTmQtG-PegYEg4OVuffs-5" style="edgeStyle=orthogonalEdgeStyle;rounded=1;orthogonalLoop=1;jettySize=auto;html=1;exitX=1;exitY=0.5;exitDx=0;exitDy=0;exitPerimeter=0;entryX=0.442;entryY=0.92;entryDx=0;entryDy=0;entryPerimeter=0;curved=0;opacity=30;" parent="1" source="VTmQtG-PegYEg4OVuffs-3" target="LCIWxbHtnL4AgZjA0z7f-10" edge="1">
          <mxGeometry relative="1" as="geometry" />
        </mxCell>
        <mxCell id="VTmQtG-PegYEg4OVuffs-6" style="edgeStyle=orthogonalEdgeStyle;rounded=1;orthogonalLoop=1;jettySize=auto;html=1;exitX=1;exitY=0.5;exitDx=0;exitDy=0;exitPerimeter=0;entryX=0.469;entryY=0.92;entryDx=0;entryDy=0;entryPerimeter=0;curved=0;opacity=30;" parent="1" source="VTmQtG-PegYEg4OVuffs-4" target="VTmQtG-PegYEg4OVuffs-1" edge="1">
          <mxGeometry relative="1" as="geometry" />
        </mxCell>
        <mxCell id="VTmQtG-PegYEg4OVuffs-9" value="grammar&#xa;name2" style="rhombus;rounded=1;fontStyle=1;glass=0;sketch=0;fontSize=9;points=[[0,0.5,0,0,0],[0.5,0,0,0,0],[0.5,1,0,0,0],[1,0.5,0,0,0]];shadow=1;fontFamily=Helvetica;fontColor=default;" parent="1" vertex="1">
          <mxGeometry x="20" y="440" width="40" height="40" as="geometry" />
        </mxCell>
        <mxCell id="VTmQtG-PegYEg4OVuffs-10" value="ohm2" style="rhombus;rounded=1;fontStyle=1;glass=0;sketch=0;fontSize=9;points=[[0,0.5,0,0,0],[0.5,0,0,0,0],[0.5,1,0,0,0],[1,0.5,0,0,0]];shadow=1;fontFamily=Helvetica;fontColor=default;" parent="1" vertex="1">
          <mxGeometry x="40" y="470" width="40" height="40" as="geometry" />
        </mxCell>
        <mxCell id="VTmQtG-PegYEg4OVuffs-11" value="rwr2" style="rhombus;rounded=1;fontStyle=1;glass=0;sketch=0;fontSize=9;points=[[0,0.5,0,0,0],[0.5,0,0,0,0],[0.5,1,0,0,0],[1,0.5,0,0,0]];shadow=1;fontFamily=Helvetica;fontColor=default;" parent="1" vertex="1">
          <mxGeometry x="20" y="500" width="40" height="40" as="geometry" />
        </mxCell>
        <mxCell id="VTmQtG-PegYEg4OVuffs-12" value="support2" style="rhombus;rounded=1;fontStyle=1;glass=0;sketch=0;fontSize=9;points=[[0,0.5,0,0,0],[0.5,0,0,0,0],[0.5,1,0,0,0],[1,0.5,0,0,0]];shadow=1;fontFamily=Helvetica;fontColor=default;" parent="1" vertex="1">
          <mxGeometry x="50" y="520" width="40" height="40" as="geometry" />
        </mxCell>
        <mxCell id="VTmQtG-PegYEg4OVuffs-13" style="edgeStyle=orthogonalEdgeStyle;rounded=1;orthogonalLoop=1;jettySize=auto;html=1;exitX=1;exitY=0.5;exitDx=0;exitDy=0;exitPerimeter=0;entryX=0.49;entryY=1.12;entryDx=0;entryDy=0;entryPerimeter=0;curved=0;opacity=30;" parent="1" source="VTmQtG-PegYEg4OVuffs-9" target="LCIWxbHtnL4AgZjA0z7f-11" edge="1">
          <mxGeometry relative="1" as="geometry">
            <mxPoint x="188" y="460" as="targetPoint" />
          </mxGeometry>
        </mxCell>
        <mxCell id="VTmQtG-PegYEg4OVuffs-14" style="edgeStyle=orthogonalEdgeStyle;curved=0;rounded=1;orthogonalLoop=1;jettySize=auto;html=1;exitX=1;exitY=0.5;exitDx=0;exitDy=0;exitPerimeter=0;entryX=0.544;entryY=0.96;entryDx=0;entryDy=0;entryPerimeter=0;opacity=30;strokeColor=default;align=center;verticalAlign=middle;fontFamily=Helvetica;fontSize=11;fontColor=default;labelBackgroundColor=default;endArrow=classic;" parent="1" source="VTmQtG-PegYEg4OVuffs-10" target="LCIWxbHtnL4AgZjA0z7f-12" edge="1">
          <mxGeometry relative="1" as="geometry">
            <mxPoint x="258" y="490" as="targetPoint" />
          </mxGeometry>
        </mxCell>
        <mxCell id="VTmQtG-PegYEg4OVuffs-15" style="edgeStyle=orthogonalEdgeStyle;curved=0;rounded=1;orthogonalLoop=1;jettySize=auto;html=1;exitX=1;exitY=0.5;exitDx=0;exitDy=0;exitPerimeter=0;entryX=0.497;entryY=1.12;entryDx=0;entryDy=0;entryPerimeter=0;opacity=30;strokeColor=default;align=center;verticalAlign=middle;fontFamily=Helvetica;fontSize=11;fontColor=default;labelBackgroundColor=default;endArrow=classic;" parent="1" source="VTmQtG-PegYEg4OVuffs-11" target="VTmQtG-PegYEg4OVuffs-7" edge="1">
          <mxGeometry relative="1" as="geometry">
            <mxPoint x="198" y="520" as="targetPoint" />
          </mxGeometry>
        </mxCell>
        <mxCell id="VTmQtG-PegYEg4OVuffs-16" style="edgeStyle=orthogonalEdgeStyle;curved=0;rounded=1;orthogonalLoop=1;jettySize=auto;html=1;exitX=1;exitY=0.5;exitDx=0;exitDy=0;exitPerimeter=0;entryX=0.524;entryY=1.04;entryDx=0;entryDy=0;entryPerimeter=0;opacity=30;strokeColor=default;align=center;verticalAlign=middle;fontFamily=Helvetica;fontSize=11;fontColor=default;labelBackgroundColor=default;endArrow=classic;" parent="1" source="VTmQtG-PegYEg4OVuffs-12" target="VTmQtG-PegYEg4OVuffs-8" edge="1">
          <mxGeometry relative="1" as="geometry">
            <mxPoint x="268" y="550" as="targetPoint" />
          </mxGeometry>
        </mxCell>
        <mxCell id="PeTct7XzJ5eczt-76ZHi-1" style="edgeStyle=orthogonalEdgeStyle;curved=0;rounded=1;orthogonalLoop=1;jettySize=auto;html=1;exitX=1;exitY=0.5;exitDx=0;exitDy=0;exitPerimeter=0;entryX=0;entryY=0.5;entryDx=0;entryDy=0;entryPerimeter=0;strokeColor=default;strokeWidth=2;align=center;verticalAlign=middle;fontFamily=Helvetica;fontSize=11;fontColor=default;labelBackgroundColor=default;endArrow=classic;" parent="1" source="_-YTuwWALcvk040Sg-yM-3" target="CZ-6qLe8DsOaRnYPHkps-2" edge="1">
          <mxGeometry relative="1" as="geometry" />
        </mxCell>
        <mxCell id="PeTct7XzJ5eczt-76ZHi-3" value="pass3" style="rounded=1;whiteSpace=wrap;html=1;container=1;recursiveResize=0;verticalAlign=top;arcSize=6;fontStyle=1;autosize=0;points=[];absoluteArcSize=1;shadow=1;strokeColor=#6c8ebf;fillColor=#dae8fc;fontFamily=Helvetica;fontSize=11;gradientColor=#0050EF;fontColor=default;" parent="1" vertex="1">
          <mxGeometry x="770" y="120" width="138" height="110" as="geometry">
            <mxRectangle x="-98" y="-1230" width="99" height="26" as="alternateBounds" />
          </mxGeometry>
        </mxCell>
        <mxCell id="PeTct7XzJ5eczt-76ZHi-4" value="" style="rounded=1;whiteSpace=wrap;html=1;sketch=0;points=[[0,0.5,0,0,0],[1,0.5,0,0,0]];arcSize=50;fontFamily=Helvetica;fontSize=11;fontColor=default;" parent="PeTct7XzJ5eczt-76ZHi-3" vertex="1">
          <mxGeometry x="-16.75" y="27.5" width="36.75" height="25" as="geometry" />
        </mxCell>
        <mxCell id="PeTct7XzJ5eczt-76ZHi-5" value="" style="rounded=1;whiteSpace=wrap;html=1;sketch=0;points=[[0,0.5,0,0,0],[1,0.5,0,0,0]];fillColor=#1ba1e2;fontColor=#ffffff;strokeColor=#006EAF;arcSize=50;fontFamily=Helvetica;fontSize=11;" parent="PeTct7XzJ5eczt-76ZHi-3" vertex="1">
          <mxGeometry x="120" y="27.5" width="36" height="25" as="geometry" />
        </mxCell>
        <mxCell id="PeTct7XzJ5eczt-76ZHi-6" value="✗" style="rounded=1;whiteSpace=wrap;html=1;sketch=0;points=[[0,0.5,0,0,0],[1,0.5,0,0,0]];fillColor=#1ba1e2;fontColor=#ffffff;strokeColor=#006EAF;arcSize=50;fontFamily=Helvetica;fontSize=11;textOpacity=30;" parent="PeTct7XzJ5eczt-76ZHi-3" vertex="1">
          <mxGeometry x="120" y="60" width="36" height="25" as="geometry" />
        </mxCell>
        <mxCell id="PeTct7XzJ5eczt-76ZHi-7" value="grammar&#xa;name" style="rounded=1;sketch=0;points=[[0,0.5,0,0,0],[1,0.5,0,0,0]];arcSize=50;fontFamily=Helvetica;fontSize=9;fontColor=default;" parent="PeTct7XzJ5eczt-76ZHi-3" vertex="1">
          <mxGeometry y="60" width="36.75" height="25" as="geometry" />
        </mxCell>
        <mxCell id="PeTct7XzJ5eczt-76ZHi-8" value="ohm" style="rounded=1;sketch=0;points=[[0,0.5,0,0,0],[1,0.5,0,0,0]];arcSize=50;fontFamily=Helvetica;fontSize=9;fontColor=default;" parent="PeTct7XzJ5eczt-76ZHi-3" vertex="1">
          <mxGeometry x="20" y="70" width="36.75" height="25" as="geometry" />
        </mxCell>
        <mxCell id="PeTct7XzJ5eczt-76ZHi-9" value="rwr" style="rounded=1;sketch=0;points=[[0,0.5,0,0,0],[1,0.5,0,0,0]];arcSize=50;fontFamily=Helvetica;fontSize=9;fontColor=default;" parent="PeTct7XzJ5eczt-76ZHi-3" vertex="1">
          <mxGeometry x="36.75" y="80" width="36.75" height="25" as="geometry" />
        </mxCell>
        <mxCell id="PeTct7XzJ5eczt-76ZHi-10" value="support" style="rounded=1;sketch=0;points=[[0,0.5,0,0,0],[1,0.5,0,0,0]];arcSize=50;fontFamily=Helvetica;fontSize=9;fontColor=default;" parent="PeTct7XzJ5eczt-76ZHi-3" vertex="1">
          <mxGeometry x="56.74999999999999" y="85" width="36.75" height="25" as="geometry" />
        </mxCell>
        <mxCell id="PeTct7XzJ5eczt-76ZHi-11" style="edgeStyle=orthogonalEdgeStyle;curved=0;rounded=1;orthogonalLoop=1;jettySize=auto;html=1;exitX=1;exitY=0.5;exitDx=0;exitDy=0;exitPerimeter=0;entryX=0;entryY=0.5;entryDx=0;entryDy=0;entryPerimeter=0;strokeColor=default;strokeWidth=2;align=center;verticalAlign=middle;fontFamily=Helvetica;fontSize=11;fontColor=default;labelBackgroundColor=default;endArrow=classic;" parent="1" source="CZ-6qLe8DsOaRnYPHkps-3" target="PeTct7XzJ5eczt-76ZHi-4" edge="1">
          <mxGeometry relative="1" as="geometry" />
        </mxCell>
        <mxCell id="FwD1aDwRomljv2TTWLnS-1" style="edgeStyle=orthogonalEdgeStyle;curved=0;rounded=1;orthogonalLoop=1;jettySize=auto;html=1;entryX=0;entryY=0.5;entryDx=0;entryDy=0;entryPerimeter=0;strokeColor=default;strokeWidth=1;align=center;verticalAlign=middle;fontFamily=Helvetica;fontSize=11;fontColor=default;labelBackgroundColor=default;endArrow=classic;opacity=30;" parent="1" source="PeTct7XzJ5eczt-76ZHi-6" target="_-YTuwWALcvk040Sg-yM-7" edge="1">
          <mxGeometry relative="1" as="geometry">
            <Array as="points">
              <mxPoint x="960" y="193" />
              <mxPoint x="960" y="240" />
            </Array>
          </mxGeometry>
        </mxCell>
        <mxCell id="FwD1aDwRomljv2TTWLnS-2" value="grammar&#xa;name3" style="rhombus;rounded=1;fontStyle=1;glass=0;sketch=0;fontSize=9;points=[[0,0.5,0,0,0],[0.5,0,0,0,0],[0.5,1,0,0,0],[1,0.5,0,0,0]];shadow=1;fontFamily=Helvetica;fontColor=default;" parent="1" vertex="1">
          <mxGeometry x="20" y="580" width="40" height="40" as="geometry" />
        </mxCell>
        <mxCell id="FwD1aDwRomljv2TTWLnS-3" value="ohm3" style="rhombus;rounded=1;fontStyle=1;glass=0;sketch=0;fontSize=9;points=[[0,0.5,0,0,0],[0.5,0,0,0,0],[0.5,1,0,0,0],[1,0.5,0,0,0]];shadow=1;fontFamily=Helvetica;fontColor=default;" parent="1" vertex="1">
          <mxGeometry x="40" y="610" width="40" height="40" as="geometry" />
        </mxCell>
        <mxCell id="FwD1aDwRomljv2TTWLnS-4" value="rwr3" style="rhombus;rounded=1;fontStyle=1;glass=0;sketch=0;fontSize=9;points=[[0,0.5,0,0,0],[0.5,0,0,0,0],[0.5,1,0,0,0],[1,0.5,0,0,0]];shadow=1;fontFamily=Helvetica;fontColor=default;" parent="1" vertex="1">
          <mxGeometry x="20" y="640" width="40" height="40" as="geometry" />
        </mxCell>
        <mxCell id="FwD1aDwRomljv2TTWLnS-5" value="support3" style="rhombus;rounded=1;fontStyle=1;glass=0;sketch=0;fontSize=9;points=[[0,0.5,0,0,0],[0.5,0,0,0,0],[0.5,1,0,0,0],[1,0.5,0,0,0]];shadow=1;fontFamily=Helvetica;fontColor=default;" parent="1" vertex="1">
          <mxGeometry x="50" y="660" width="40" height="40" as="geometry" />
        </mxCell>
        <mxCell id="FwD1aDwRomljv2TTWLnS-6" style="edgeStyle=orthogonalEdgeStyle;curved=0;rounded=1;orthogonalLoop=1;jettySize=auto;html=1;exitX=1;exitY=0.5;exitDx=0;exitDy=0;exitPerimeter=0;entryX=0.435;entryY=1;entryDx=0;entryDy=0;entryPerimeter=0;strokeColor=default;strokeWidth=1;align=center;verticalAlign=middle;fontFamily=Helvetica;fontSize=11;fontColor=default;labelBackgroundColor=default;endArrow=classic;opacity=30;" parent="1" source="FwD1aDwRomljv2TTWLnS-2" target="PeTct7XzJ5eczt-76ZHi-7" edge="1">
          <mxGeometry relative="1" as="geometry" />
        </mxCell>
        <mxCell id="FwD1aDwRomljv2TTWLnS-7" style="edgeStyle=orthogonalEdgeStyle;curved=0;rounded=1;orthogonalLoop=1;jettySize=auto;html=1;exitX=1;exitY=0.5;exitDx=0;exitDy=0;exitPerimeter=0;entryX=0.435;entryY=0.96;entryDx=0;entryDy=0;entryPerimeter=0;opacity=30;strokeColor=default;strokeWidth=1;align=center;verticalAlign=middle;fontFamily=Helvetica;fontSize=11;fontColor=default;labelBackgroundColor=default;endArrow=classic;" parent="1" source="FwD1aDwRomljv2TTWLnS-3" target="PeTct7XzJ5eczt-76ZHi-8" edge="1">
          <mxGeometry relative="1" as="geometry" />
        </mxCell>
        <mxCell id="FwD1aDwRomljv2TTWLnS-8" style="edgeStyle=orthogonalEdgeStyle;curved=0;rounded=1;orthogonalLoop=1;jettySize=auto;html=1;exitX=1;exitY=0.5;exitDx=0;exitDy=0;exitPerimeter=0;entryX=0.497;entryY=0.92;entryDx=0;entryDy=0;entryPerimeter=0;opacity=30;strokeColor=default;strokeWidth=1;align=center;verticalAlign=middle;fontFamily=Helvetica;fontSize=11;fontColor=default;labelBackgroundColor=default;endArrow=classic;" parent="1" source="FwD1aDwRomljv2TTWLnS-4" target="PeTct7XzJ5eczt-76ZHi-9" edge="1">
          <mxGeometry relative="1" as="geometry" />
        </mxCell>
        <mxCell id="FwD1aDwRomljv2TTWLnS-9" style="edgeStyle=orthogonalEdgeStyle;curved=0;rounded=1;orthogonalLoop=1;jettySize=auto;html=1;exitX=1;exitY=0.5;exitDx=0;exitDy=0;exitPerimeter=0;entryX=0.497;entryY=0.92;entryDx=0;entryDy=0;entryPerimeter=0;opacity=30;strokeColor=default;strokeWidth=1;align=center;verticalAlign=middle;fontFamily=Helvetica;fontSize=11;fontColor=default;labelBackgroundColor=default;endArrow=classic;" parent="1" source="FwD1aDwRomljv2TTWLnS-5" target="PeTct7XzJ5eczt-76ZHi-10" edge="1">
          <mxGeometry relative="1" as="geometry" />
        </mxCell>
        <mxCell id="AomCqyVgUgGo4Gin0dHb-2" style="edgeStyle=orthogonalEdgeStyle;curved=0;rounded=1;orthogonalLoop=1;jettySize=auto;html=1;exitX=1;exitY=0.5;exitDx=0;exitDy=0;exitPerimeter=0;entryX=0;entryY=0.5;entryDx=0;entryDy=0;entryPerimeter=0;strokeColor=default;strokeWidth=2;align=center;verticalAlign=middle;fontFamily=Helvetica;fontSize=11;fontColor=default;labelBackgroundColor=default;endArrow=classic;" parent="1" source="LCIWxbHtnL4AgZjA0z7f-3" target="_-YTuwWALcvk040Sg-yM-6" edge="1">
          <mxGeometry relative="1" as="geometry" />
        </mxCell>
        <mxCell id="AomCqyVgUgGo4Gin0dHb-5" value="$ node scrubber.js" style="rounded=1;whiteSpace=wrap;html=1;container=1;recursiveResize=0;verticalAlign=top;arcSize=6;fontStyle=1;autosize=0;points=[];absoluteArcSize=1;shadow=1;strokeColor=#6c8ebf;fillColor=#dae8fc;fontFamily=Helvetica;fontSize=11;gradientColor=#0050EF;fontColor=default;" parent="1" vertex="1">
          <mxGeometry x="1280" y="120" width="138" height="100" as="geometry">
            <mxRectangle x="-98" y="-1230" width="99" height="26" as="alternateBounds" />
          </mxGeometry>
        </mxCell>
        <mxCell id="AomCqyVgUgGo4Gin0dHb-6" value="" style="rounded=1;whiteSpace=wrap;html=1;sketch=0;points=[[0,0.5,0,0,0],[1,0.5,0,0,0]];arcSize=50;fontFamily=Helvetica;fontSize=11;fontColor=default;" parent="AomCqyVgUgGo4Gin0dHb-5" vertex="1">
          <mxGeometry x="-16.75" y="27.5" width="36.75" height="25" as="geometry" />
        </mxCell>
        <mxCell id="AomCqyVgUgGo4Gin0dHb-7" value="" style="rounded=1;whiteSpace=wrap;html=1;sketch=0;points=[[0,0.5,0,0,0],[1,0.5,0,0,0]];fillColor=#1ba1e2;fontColor=#ffffff;strokeColor=#006EAF;arcSize=50;fontFamily=Helvetica;fontSize=11;" parent="AomCqyVgUgGo4Gin0dHb-5" vertex="1">
          <mxGeometry x="120" y="27.5" width="36" height="25" as="geometry" />
        </mxCell>
        <mxCell id="AomCqyVgUgGo4Gin0dHb-8" value="✗" style="rounded=1;whiteSpace=wrap;html=1;sketch=0;points=[[0,0.5,0,0,0],[1,0.5,0,0,0]];fillColor=#1ba1e2;fontColor=#ffffff;strokeColor=#006EAF;arcSize=50;fontFamily=Helvetica;fontSize=11;textOpacity=30;" parent="AomCqyVgUgGo4Gin0dHb-5" vertex="1">
          <mxGeometry x="120" y="60" width="36" height="25" as="geometry" />
        </mxCell>
        <mxCell id="AomCqyVgUgGo4Gin0dHb-12" style="edgeStyle=orthogonalEdgeStyle;curved=0;rounded=1;orthogonalLoop=1;jettySize=auto;html=1;exitX=1;exitY=0.5;exitDx=0;exitDy=0;exitPerimeter=0;entryX=0;entryY=0.5;entryDx=0;entryDy=0;entryPerimeter=0;strokeColor=default;strokeWidth=2;align=center;verticalAlign=middle;fontFamily=Helvetica;fontSize=11;fontColor=default;labelBackgroundColor=default;endArrow=classic;" parent="1" source="AomCqyVgUgGo4Gin0dHb-7" target="LCIWxbHtnL4AgZjA0z7f-2" edge="1">
          <mxGeometry relative="1" as="geometry" />
        </mxCell>
        <mxCell id="AomCqyVgUgGo4Gin0dHb-13" style="edgeStyle=orthogonalEdgeStyle;curved=0;rounded=1;orthogonalLoop=1;jettySize=auto;html=1;exitX=1;exitY=0.5;exitDx=0;exitDy=0;exitPerimeter=0;entryX=0;entryY=0.5;entryDx=0;entryDy=0;entryPerimeter=0;strokeColor=default;strokeWidth=1;align=center;verticalAlign=middle;fontFamily=Helvetica;fontSize=11;fontColor=default;labelBackgroundColor=default;endArrow=classic;opacity=30;" parent="1" source="AomCqyVgUgGo4Gin0dHb-8" target="_-YTuwWALcvk040Sg-yM-7" edge="1">
          <mxGeometry relative="1" as="geometry">
            <Array as="points">
              <mxPoint x="1470" y="193" />
              <mxPoint x="1470" y="240" />
            </Array>
          </mxGeometry>
        </mxCell>
        <mxCell id="PDmsrMhZURnzhIbve7P8-1" value="?A" style="rounded=1;whiteSpace=wrap;html=1;sketch=0;container=1;recursiveResize=0;verticalAlign=bottom;arcSize=6;fontStyle=0;autosize=0;points=[];absoluteArcSize=1;shadow=0;strokeColor=#d79b00;fillColor=#FFFFFF;fontFamily=Helvetica;fontSize=11;dashed=1;opacity=30;align=right;textOpacity=30;gradientColor=#EA6B66;fontColor=default;" vertex="1" parent="1">
          <mxGeometry x="880" y="30" width="40" height="50" as="geometry">
            <mxRectangle x="-98" y="-1230" width="99" height="26" as="alternateBounds" />
          </mxGeometry>
        </mxCell>
        <mxCell id="PDmsrMhZURnzhIbve7P8-2" value="" style="rounded=1;whiteSpace=wrap;html=1;sketch=0;points=[[0,0.5,0,0,0],[1,0.5,0,0,0]];arcSize=50;fontFamily=Helvetica;fontSize=11;fontColor=default;dashed=1;textOpacity=50;opacity=30;fontStyle=0" vertex="1" parent="PDmsrMhZURnzhIbve7P8-1">
          <mxGeometry x="-12" y="12.5" width="39.25" height="25" as="geometry" />
        </mxCell>
        <mxCell id="PDmsrMhZURnzhIbve7P8-3" style="edgeStyle=orthogonalEdgeStyle;rounded=0;orthogonalLoop=1;jettySize=auto;html=1;exitX=1;exitY=0.5;exitDx=0;exitDy=0;exitPerimeter=0;entryX=0;entryY=0.5;entryDx=0;entryDy=0;entryPerimeter=0;" edge="1" parent="1" source="CZ-6qLe8DsOaRnYPHkps-3" target="PDmsrMhZURnzhIbve7P8-2">
          <mxGeometry relative="1" as="geometry">
            <mxPoint x="830" y="50" as="targetPoint" />
            <Array as="points">
              <mxPoint x="730" y="160" />
              <mxPoint x="730" y="55" />
            </Array>
          </mxGeometry>
        </mxCell>
        <mxCell id="89_kzagpqeOJZblPgokh-1" value="peephole" style="rounded=1;whiteSpace=wrap;html=1;container=1;recursiveResize=0;verticalAlign=top;arcSize=6;fontStyle=1;autosize=0;points=[];absoluteArcSize=1;shadow=1;strokeColor=#6c8ebf;fillColor=#dae8fc;fontFamily=Helvetica;fontSize=11;gradientColor=#0050EF;fontColor=default;" vertex="1" parent="1">
          <mxGeometry x="1000" y="120" width="138" height="110" as="geometry">
            <mxRectangle x="-98" y="-1230" width="99" height="26" as="alternateBounds" />
          </mxGeometry>
        </mxCell>
        <mxCell id="89_kzagpqeOJZblPgokh-2" value="" style="rounded=1;whiteSpace=wrap;html=1;sketch=0;points=[[0,0.5,0,0,0],[1,0.5,0,0,0]];arcSize=50;fontFamily=Helvetica;fontSize=11;fontColor=default;" vertex="1" parent="89_kzagpqeOJZblPgokh-1">
          <mxGeometry x="-16.75" y="27.5" width="36.75" height="25" as="geometry" />
        </mxCell>
        <mxCell id="89_kzagpqeOJZblPgokh-3" value="" style="rounded=1;whiteSpace=wrap;html=1;sketch=0;points=[[0,0.5,0,0,0],[1,0.5,0,0,0]];fillColor=#1ba1e2;fontColor=#ffffff;strokeColor=#006EAF;arcSize=50;fontFamily=Helvetica;fontSize=11;" vertex="1" parent="89_kzagpqeOJZblPgokh-1">
          <mxGeometry x="120" y="27.5" width="36" height="25" as="geometry" />
        </mxCell>
        <mxCell id="89_kzagpqeOJZblPgokh-4" value="✗" style="rounded=1;whiteSpace=wrap;html=1;sketch=0;points=[[0,0.5,0,0,0],[1,0.5,0,0,0]];fillColor=#1ba1e2;fontColor=#ffffff;strokeColor=#006EAF;arcSize=50;fontFamily=Helvetica;fontSize=11;textOpacity=30;" vertex="1" parent="89_kzagpqeOJZblPgokh-1">
          <mxGeometry x="120" y="60" width="36" height="25" as="geometry" />
        </mxCell>
        <mxCell id="89_kzagpqeOJZblPgokh-5" value="grammar&#xa;name" style="rounded=1;sketch=0;points=[[0,0.5,0,0,0],[1,0.5,0,0,0]];arcSize=50;fontFamily=Helvetica;fontSize=9;fontColor=default;" vertex="1" parent="89_kzagpqeOJZblPgokh-1">
          <mxGeometry y="60" width="36.75" height="25" as="geometry" />
        </mxCell>
        <mxCell id="89_kzagpqeOJZblPgokh-6" value="ohm" style="rounded=1;sketch=0;points=[[0,0.5,0,0,0],[1,0.5,0,0,0]];arcSize=50;fontFamily=Helvetica;fontSize=9;fontColor=default;" vertex="1" parent="89_kzagpqeOJZblPgokh-1">
          <mxGeometry x="20" y="70" width="36.75" height="25" as="geometry" />
        </mxCell>
        <mxCell id="89_kzagpqeOJZblPgokh-7" value="rwr" style="rounded=1;sketch=0;points=[[0,0.5,0,0,0],[1,0.5,0,0,0]];arcSize=50;fontFamily=Helvetica;fontSize=9;fontColor=default;" vertex="1" parent="89_kzagpqeOJZblPgokh-1">
          <mxGeometry x="36.75" y="80" width="36.75" height="25" as="geometry" />
        </mxCell>
        <mxCell id="89_kzagpqeOJZblPgokh-8" value="support" style="rounded=1;sketch=0;points=[[0,0.5,0,0,0],[1,0.5,0,0,0]];arcSize=50;fontFamily=Helvetica;fontSize=9;fontColor=default;" vertex="1" parent="89_kzagpqeOJZblPgokh-1">
          <mxGeometry x="56.74999999999999" y="85" width="36.75" height="25" as="geometry" />
        </mxCell>
        <mxCell id="89_kzagpqeOJZblPgokh-9" style="edgeStyle=orthogonalEdgeStyle;rounded=1;orthogonalLoop=1;jettySize=auto;html=1;exitX=1;exitY=0.5;exitDx=0;exitDy=0;exitPerimeter=0;entryX=0;entryY=0.5;entryDx=0;entryDy=0;entryPerimeter=0;curved=0;strokeWidth=2;" edge="1" parent="1" source="89_kzagpqeOJZblPgokh-3" target="AomCqyVgUgGo4Gin0dHb-6">
          <mxGeometry relative="1" as="geometry" />
        </mxCell>
        <mxCell id="89_kzagpqeOJZblPgokh-10" style="edgeStyle=orthogonalEdgeStyle;curved=0;rounded=1;orthogonalLoop=1;jettySize=auto;html=1;exitX=1;exitY=0.5;exitDx=0;exitDy=0;exitPerimeter=0;entryX=0;entryY=0.5;entryDx=0;entryDy=0;entryPerimeter=0;strokeColor=default;strokeWidth=2;align=center;verticalAlign=middle;fontFamily=Helvetica;fontSize=11;fontColor=default;labelBackgroundColor=default;endArrow=classic;" edge="1" parent="1" source="PeTct7XzJ5eczt-76ZHi-5" target="89_kzagpqeOJZblPgokh-2">
          <mxGeometry relative="1" as="geometry" />
        </mxCell>
        <mxCell id="89_kzagpqeOJZblPgokh-11" value="grammar&#xa;namep" style="rhombus;rounded=1;fontStyle=1;glass=0;sketch=0;fontSize=9;points=[[0,0.5,0,0,0],[0.5,0,0,0,0],[0.5,1,0,0,0],[1,0.5,0,0,0]];shadow=1;fontFamily=Helvetica;fontColor=default;" vertex="1" parent="1">
          <mxGeometry x="20" y="720" width="40" height="40" as="geometry" />
        </mxCell>
        <mxCell id="89_kzagpqeOJZblPgokh-12" value="ohmp" style="rhombus;rounded=1;fontStyle=1;glass=0;sketch=0;fontSize=9;points=[[0,0.5,0,0,0],[0.5,0,0,0,0],[0.5,1,0,0,0],[1,0.5,0,0,0]];shadow=1;fontFamily=Helvetica;fontColor=default;" vertex="1" parent="1">
          <mxGeometry x="40" y="750" width="40" height="40" as="geometry" />
        </mxCell>
        <mxCell id="89_kzagpqeOJZblPgokh-13" value="rwrp" style="rhombus;rounded=1;fontStyle=1;glass=0;sketch=0;fontSize=9;points=[[0,0.5,0,0,0],[0.5,0,0,0,0],[0.5,1,0,0,0],[1,0.5,0,0,0]];shadow=1;fontFamily=Helvetica;fontColor=default;" vertex="1" parent="1">
          <mxGeometry x="20" y="780" width="40" height="40" as="geometry" />
        </mxCell>
        <mxCell id="89_kzagpqeOJZblPgokh-14" value="supportp" style="rhombus;rounded=1;fontStyle=1;glass=0;sketch=0;fontSize=9;points=[[0,0.5,0,0,0],[0.5,0,0,0,0],[0.5,1,0,0,0],[1,0.5,0,0,0]];shadow=1;fontFamily=Helvetica;fontColor=default;" vertex="1" parent="1">
          <mxGeometry x="50" y="800" width="40" height="40" as="geometry" />
        </mxCell>
        <mxCell id="89_kzagpqeOJZblPgokh-15" style="edgeStyle=orthogonalEdgeStyle;curved=0;rounded=1;orthogonalLoop=1;jettySize=auto;html=1;exitX=1;exitY=0.5;exitDx=0;exitDy=0;exitPerimeter=0;entryX=0.49;entryY=0.96;entryDx=0;entryDy=0;entryPerimeter=0;strokeColor=default;strokeWidth=1;align=center;verticalAlign=middle;fontFamily=Helvetica;fontSize=11;fontColor=default;labelBackgroundColor=default;endArrow=classic;opacity=30;" edge="1" parent="1" source="89_kzagpqeOJZblPgokh-11" target="89_kzagpqeOJZblPgokh-5">
          <mxGeometry relative="1" as="geometry" />
        </mxCell>
        <mxCell id="89_kzagpqeOJZblPgokh-16" style="edgeStyle=orthogonalEdgeStyle;curved=0;rounded=1;orthogonalLoop=1;jettySize=auto;html=1;exitX=1;exitY=0.5;exitDx=0;exitDy=0;exitPerimeter=0;entryX=0.463;entryY=1;entryDx=0;entryDy=0;entryPerimeter=0;strokeColor=default;strokeWidth=1;align=center;verticalAlign=middle;fontFamily=Helvetica;fontSize=11;fontColor=default;labelBackgroundColor=default;endArrow=classic;opacity=30;" edge="1" parent="1" source="89_kzagpqeOJZblPgokh-12" target="89_kzagpqeOJZblPgokh-6">
          <mxGeometry relative="1" as="geometry" />
        </mxCell>
        <mxCell id="89_kzagpqeOJZblPgokh-17" style="edgeStyle=orthogonalEdgeStyle;curved=0;rounded=1;orthogonalLoop=1;jettySize=auto;html=1;exitX=1;exitY=0.5;exitDx=0;exitDy=0;exitPerimeter=0;entryX=0.469;entryY=0.96;entryDx=0;entryDy=0;entryPerimeter=0;strokeColor=default;strokeWidth=1;align=center;verticalAlign=middle;fontFamily=Helvetica;fontSize=11;fontColor=default;labelBackgroundColor=default;endArrow=classic;opacity=30;" edge="1" parent="1" source="89_kzagpqeOJZblPgokh-13" target="89_kzagpqeOJZblPgokh-7">
          <mxGeometry relative="1" as="geometry" />
        </mxCell>
        <mxCell id="89_kzagpqeOJZblPgokh-18" style="edgeStyle=orthogonalEdgeStyle;curved=0;rounded=1;orthogonalLoop=1;jettySize=auto;html=1;exitX=1;exitY=0.5;exitDx=0;exitDy=0;exitPerimeter=0;entryX=0.551;entryY=1.08;entryDx=0;entryDy=0;entryPerimeter=0;strokeColor=default;strokeWidth=1;align=center;verticalAlign=middle;fontFamily=Helvetica;fontSize=11;fontColor=default;labelBackgroundColor=default;endArrow=classic;opacity=30;" edge="1" parent="1" source="89_kzagpqeOJZblPgokh-14" target="89_kzagpqeOJZblPgokh-8">
          <mxGeometry relative="1" as="geometry" />
        </mxCell>
      </root>
    </mxGraphModel>
  </diagram>
  <diagram name="t2t" id="IVkmqNRIPyn7o2C7Jiq4">
    <mxGraphModel dx="1062" dy="561" grid="1" gridSize="10" guides="1" tooltips="1" connect="1" arrows="1" fold="1" page="1" pageScale="1" pageWidth="850" pageHeight="1100" math="0" shadow="0">
      <root>
        <mxCell id="0" />
        <mxCell id="1" parent="0" />
        <mxCell id="CzOqulaSszRgKVcybotP-1" value="Transpile" style="rounded=1;whiteSpace=wrap;sketch=0;container=1;recursiveResize=0;verticalAlign=top;arcSize=6;fontStyle=1;autosize=0;points=[];absoluteArcSize=1;shadow=1;strokeColor=#001DBC;fillColor=#0050ef;fontColor=#ffffff;fontFamily=Helvetica;fontSize=11;" parent="1" vertex="1">
          <mxGeometry x="490" y="50" width="130" height="210" as="geometry">
            <mxRectangle x="-98" y="-1230" width="99" height="26" as="alternateBounds" />
          </mxGeometry>
        </mxCell>
        <mxCell id="CzOqulaSszRgKVcybotP-2" value="ohmfn" style="rounded=1;whiteSpace=wrap;sketch=0;points=[[0,0.5,0,0,0],[1,0.5,0,0,0]];arcSize=50;fontFamily=Helvetica;fontSize=11;fontColor=default;fontStyle=0" parent="CzOqulaSszRgKVcybotP-1" vertex="1">
          <mxGeometry x="-17" y="57.5" width="66" height="25" as="geometry" />
        </mxCell>
        <mxCell id="CzOqulaSszRgKVcybotP-3" value="" style="rounded=1;whiteSpace=wrap;sketch=0;points=[[0,0.5,0,0,0],[1,0.5,0,0,0]];fillColor=#1ba1e2;fontColor=#ffffff;strokeColor=#006EAF;arcSize=50;fontFamily=Helvetica;fontSize=11;" parent="CzOqulaSszRgKVcybotP-1" vertex="1">
          <mxGeometry x="100" y="27.5" width="35.25" height="25" as="geometry" />
        </mxCell>
        <mxCell id="CzOqulaSszRgKVcybotP-4" value="✗" style="rounded=1;whiteSpace=wrap;sketch=0;points=[[0,0.5,0,0,0],[1,0.5,0,0,0]];fillColor=#1ba1e2;fontColor=#ffffff;strokeColor=#006EAF;arcSize=50;fontFamily=Helvetica;fontSize=11;textOpacity=30;" parent="CzOqulaSszRgKVcybotP-1" vertex="1">
          <mxGeometry x="100" y="67.5" width="35.25" height="25" as="geometry" />
        </mxCell>
        <mxCell id="CzOqulaSszRgKVcybotP-5" value="rwrfn" style="rounded=1;whiteSpace=wrap;sketch=0;points=[[0,0.5,0,0,0],[1,0.5,0,0,0]];arcSize=50;fontFamily=Helvetica;fontSize=11;fontColor=default;" parent="CzOqulaSszRgKVcybotP-1" vertex="1">
          <mxGeometry x="-17" y="92.5" width="66" height="25" as="geometry" />
        </mxCell>
        <mxCell id="CzOqulaSszRgKVcybotP-6" value="input" style="rounded=1;whiteSpace=wrap;sketch=0;points=[[0,0.5,0,0,0],[1,0.5,0,0,0]];arcSize=50;fontFamily=Helvetica;fontSize=11;fontColor=default;" parent="CzOqulaSszRgKVcybotP-1" vertex="1">
          <mxGeometry x="-17" y="167.5" width="66" height="25" as="geometry" />
        </mxCell>
        <mxCell id="CzOqulaSszRgKVcybotP-7" value="grammar name" style="rounded=1;whiteSpace=wrap;sketch=0;points=[[0,0.5,0,0,0],[1,0.5,0,0,0]];arcSize=50;fontFamily=Helvetica;fontSize=11;fontColor=default;" parent="CzOqulaSszRgKVcybotP-1" vertex="1">
          <mxGeometry x="-16" y="27.5" width="66" height="25" as="geometry" />
        </mxCell>
        <mxCell id="CzOqulaSszRgKVcybotP-8" value="rwrsupportfn" style="rounded=1;whiteSpace=wrap;sketch=0;points=[[0,0.5,0,0,0],[1,0.5,0,0,0]];arcSize=50;fontFamily=Helvetica;fontSize=11;fontColor=default;" parent="CzOqulaSszRgKVcybotP-1" vertex="1">
          <mxGeometry x="-17" y="127.5" width="66" height="25" as="geometry" />
        </mxCell>
        <mxCell id="CzOqulaSszRgKVcybotP-9" value="" style="edgeStyle=orthogonalEdgeStyle;shape=connector;rounded=1;jumpStyle=arc;orthogonalLoop=1;jettySize=auto;exitX=1;exitY=0.5;exitDx=0;exitDy=0;exitPerimeter=0;entryX=0;entryY=0.5;entryDx=0;entryDy=0;entryPerimeter=0;labelBackgroundColor=default;strokeColor=#666666;strokeWidth=2;fontFamily=Helvetica;fontSize=11;fontColor=default;endArrow=classic;fillColor=#f5f5f5;opacity=90;" parent="1" source="CzOqulaSszRgKVcybotP-3" target="CzOqulaSszRgKVcybotP-28" edge="1">
          <mxGeometry relative="1" as="geometry">
            <mxPoint x="740" y="90" as="targetPoint" />
          </mxGeometry>
        </mxCell>
        <mxCell id="CzOqulaSszRgKVcybotP-10" value="" style="edgeStyle=orthogonalEdgeStyle;shape=connector;rounded=1;jumpStyle=arc;orthogonalLoop=1;jettySize=auto;exitX=1;exitY=0.5;exitDx=0;exitDy=0;exitPerimeter=0;entryX=0;entryY=0.5;entryDx=0;entryDy=0;entryPerimeter=0;labelBackgroundColor=default;strokeColor=#666666;strokeWidth=1;fontFamily=Helvetica;fontSize=11;fontColor=default;endArrow=classic;fillColor=#f5f5f5;opacity=90;" parent="1" source="CzOqulaSszRgKVcybotP-4" target="CzOqulaSszRgKVcybotP-29" edge="1">
          <mxGeometry relative="1" as="geometry">
            <mxPoint x="740" y="270" as="targetPoint" />
          </mxGeometry>
        </mxCell>
        <mxCell id="CzOqulaSszRgKVcybotP-27" value="" style="rhombus;rounded=1;fontStyle=1;glass=0;sketch=0;fontSize=12;points=[[0,0.5,0,0,0],[0.5,0,0,0,0],[0.5,1,0,0,0],[1,0.5,0,0,0]];shadow=1;fontFamily=Helvetica;fontColor=default;labelBackgroundColor=none;" parent="1" vertex="1">
          <mxGeometry x="50" y="210" width="40" height="40" as="geometry" />
        </mxCell>
        <mxCell id="CzOqulaSszRgKVcybotP-28" value="" style="rhombus;whiteSpace=wrap;rounded=1;fontStyle=1;glass=0;sketch=0;fontSize=12;points=[[0,0.5,0,0,0],[0.5,0,0,0,0],[0.5,1,0,0,0],[1,0.5,0,0,0]];shadow=1;fillColor=#0050ef;fontColor=#ffffff;strokeColor=#001DBC;fontFamily=Helvetica;labelBackgroundColor=none;" parent="1" vertex="1">
          <mxGeometry x="710" y="70" width="40" height="40" as="geometry" />
        </mxCell>
        <mxCell id="CzOqulaSszRgKVcybotP-29" value="✗" style="rhombus;whiteSpace=wrap;rounded=1;fillColor=#0050ef;fontColor=#ffffff;strokeColor=#001DBC;fontStyle=1;glass=0;sketch=0;fontSize=12;points=[[0,0.5,0,0,0],[0.5,0,0,0,0],[0.5,1,0,0,0],[1,0.5,0,0,0]];shadow=1;opacity=30;textOpacity=30;labelBackgroundColor=none;" parent="1" vertex="1">
          <mxGeometry x="710" y="230" width="40" height="40" as="geometry" />
        </mxCell>
        <mxCell id="CzOqulaSszRgKVcybotP-30" value="" style="edgeStyle=orthogonalEdgeStyle;rounded=1;orthogonalLoop=1;jettySize=auto;exitX=1;exitY=0.5;exitDx=0;exitDy=0;exitPerimeter=0;entryX=0;entryY=0.5;entryDx=0;entryDy=0;entryPerimeter=0;curved=0;opacity=30;" parent="1" source="9dssIITWPkYs-hs0q4vN-1" target="CzOqulaSszRgKVcybotP-7" edge="1">
          <mxGeometry relative="1" as="geometry">
            <Array as="points" />
            <mxPoint x="200" y="90" as="targetPoint" />
          </mxGeometry>
        </mxCell>
        <mxCell id="CzOqulaSszRgKVcybotP-31" value="" style="edgeStyle=orthogonalEdgeStyle;curved=0;rounded=1;orthogonalLoop=1;jettySize=auto;exitX=1;exitY=0.5;exitDx=0;exitDy=0;exitPerimeter=0;entryX=0;entryY=0.5;entryDx=0;entryDy=0;entryPerimeter=0;opacity=30;strokeColor=default;align=center;verticalAlign=middle;fontFamily=Helvetica;fontSize=11;fontColor=default;labelBackgroundColor=default;endArrow=classic;" parent="1" source="9dssIITWPkYs-hs0q4vN-2" target="CzOqulaSszRgKVcybotP-2" edge="1">
          <mxGeometry relative="1" as="geometry">
            <mxPoint x="190" y="120" as="targetPoint" />
          </mxGeometry>
        </mxCell>
        <mxCell id="CzOqulaSszRgKVcybotP-32" value="" style="edgeStyle=orthogonalEdgeStyle;curved=0;rounded=1;orthogonalLoop=1;jettySize=auto;exitX=1;exitY=0.5;exitDx=0;exitDy=0;exitPerimeter=0;entryX=0;entryY=0.5;entryDx=0;entryDy=0;entryPerimeter=0;opacity=30;strokeColor=default;align=center;verticalAlign=middle;fontFamily=Helvetica;fontSize=11;fontColor=default;labelBackgroundColor=default;endArrow=classic;" parent="1" source="9dssIITWPkYs-hs0q4vN-3" target="CzOqulaSszRgKVcybotP-5" edge="1">
          <mxGeometry relative="1" as="geometry">
            <mxPoint x="190" y="155" as="targetPoint" />
          </mxGeometry>
        </mxCell>
        <mxCell id="CzOqulaSszRgKVcybotP-33" value="" style="edgeStyle=orthogonalEdgeStyle;curved=0;rounded=1;orthogonalLoop=1;jettySize=auto;exitX=1;exitY=0.5;exitDx=0;exitDy=0;exitPerimeter=0;entryX=0;entryY=0.5;entryDx=0;entryDy=0;entryPerimeter=0;opacity=30;strokeColor=default;align=center;verticalAlign=middle;fontFamily=Helvetica;fontSize=11;fontColor=default;labelBackgroundColor=default;endArrow=classic;" parent="1" source="9dssIITWPkYs-hs0q4vN-4" target="CzOqulaSszRgKVcybotP-8" edge="1">
          <mxGeometry relative="1" as="geometry">
            <mxPoint x="190" y="190" as="targetPoint" />
          </mxGeometry>
        </mxCell>
        <mxCell id="CzOqulaSszRgKVcybotP-34" value="" style="edgeStyle=orthogonalEdgeStyle;curved=0;rounded=1;orthogonalLoop=1;jettySize=auto;exitX=1;exitY=0.5;exitDx=0;exitDy=0;exitPerimeter=0;entryX=0;entryY=0.5;entryDx=0;entryDy=0;entryPerimeter=0;strokeColor=default;align=center;verticalAlign=middle;fontFamily=Helvetica;fontSize=11;fontColor=default;labelBackgroundColor=default;endArrow=classic;strokeWidth=2;" parent="1" source="CzOqulaSszRgKVcybotP-27" target="CzOqulaSszRgKVcybotP-6" edge="1">
          <mxGeometry relative="1" as="geometry" />
        </mxCell>
        <mxCell id="9dssIITWPkYs-hs0q4vN-1" value="grammar&#xa;name" style="rhombus;rounded=1;fontStyle=1;glass=0;sketch=0;fontSize=9;points=[[0,0.5,0,0,0],[0.5,0,0,0,0],[0.5,1,0,0,0],[1,0.5,0,0,0]];shadow=1;fontFamily=Helvetica;fontColor=default;" parent="1" vertex="1">
          <mxGeometry x="40" y="70" width="40" height="40" as="geometry" />
        </mxCell>
        <mxCell id="9dssIITWPkYs-hs0q4vN-2" value="ohm" style="rhombus;rounded=1;fontStyle=1;glass=0;sketch=0;fontSize=9;points=[[0,0.5,0,0,0],[0.5,0,0,0,0],[0.5,1,0,0,0],[1,0.5,0,0,0]];shadow=1;fontFamily=Helvetica;fontColor=default;" parent="1" vertex="1">
          <mxGeometry x="60" y="100" width="40" height="40" as="geometry" />
        </mxCell>
        <mxCell id="9dssIITWPkYs-hs0q4vN-3" value="rwr" style="rhombus;rounded=1;fontStyle=1;glass=0;sketch=0;fontSize=9;points=[[0,0.5,0,0,0],[0.5,0,0,0,0],[0.5,1,0,0,0],[1,0.5,0,0,0]];shadow=1;fontFamily=Helvetica;fontColor=default;" parent="1" vertex="1">
          <mxGeometry x="40" y="135" width="40" height="40" as="geometry" />
        </mxCell>
        <mxCell id="9dssIITWPkYs-hs0q4vN-4" value="support" style="rhombus;rounded=1;fontStyle=1;glass=0;sketch=0;fontSize=9;points=[[0,0.5,0,0,0],[0.5,0,0,0,0],[0.5,1,0,0,0],[1,0.5,0,0,0]];shadow=1;fontFamily=Helvetica;fontColor=default;" parent="1" vertex="1">
          <mxGeometry x="70" y="170" width="40" height="40" as="geometry" />
        </mxCell>
      </root>
    </mxGraphModel>
  </diagram>
  <diagram name="pass2" id="U-MIu4Y_TIlRALukI61I">
    <mxGraphModel dx="1062" dy="561" grid="1" gridSize="10" guides="1" tooltips="1" connect="1" arrows="1" fold="1" page="1" pageScale="1" pageWidth="850" pageHeight="1100" math="0" shadow="0">
      <root>
        <mxCell id="dDiya7v6H8nqbO7XNTY8-0" />
        <mxCell id="dDiya7v6H8nqbO7XNTY8-1" parent="dDiya7v6H8nqbO7XNTY8-0" />
        <mxCell id="dDiya7v6H8nqbO7XNTY8-2" value="Transpile" style="rounded=1;whiteSpace=wrap;sketch=0;container=1;recursiveResize=0;verticalAlign=top;arcSize=6;fontStyle=1;autosize=0;points=[];absoluteArcSize=1;shadow=1;strokeColor=#001DBC;fillColor=#0050ef;fontColor=#ffffff;fontFamily=Helvetica;fontSize=11;" vertex="1" parent="dDiya7v6H8nqbO7XNTY8-1">
          <mxGeometry x="490" y="50" width="130" height="210" as="geometry">
            <mxRectangle x="-98" y="-1230" width="99" height="26" as="alternateBounds" />
          </mxGeometry>
        </mxCell>
        <mxCell id="dDiya7v6H8nqbO7XNTY8-3" value="ohmfn" style="rounded=1;whiteSpace=wrap;sketch=0;points=[[0,0.5,0,0,0],[1,0.5,0,0,0]];arcSize=50;fontFamily=Helvetica;fontSize=11;fontColor=default;fontStyle=0" vertex="1" parent="dDiya7v6H8nqbO7XNTY8-2">
          <mxGeometry x="-17" y="57.5" width="66" height="25" as="geometry" />
        </mxCell>
        <mxCell id="dDiya7v6H8nqbO7XNTY8-4" value="" style="rounded=1;whiteSpace=wrap;sketch=0;points=[[0,0.5,0,0,0],[1,0.5,0,0,0]];fillColor=#1ba1e2;fontColor=#ffffff;strokeColor=#006EAF;arcSize=50;fontFamily=Helvetica;fontSize=11;" vertex="1" parent="dDiya7v6H8nqbO7XNTY8-2">
          <mxGeometry x="100" y="27.5" width="35.25" height="25" as="geometry" />
        </mxCell>
        <mxCell id="dDiya7v6H8nqbO7XNTY8-5" value="✗" style="rounded=1;whiteSpace=wrap;sketch=0;points=[[0,0.5,0,0,0],[1,0.5,0,0,0]];fillColor=#1ba1e2;fontColor=#ffffff;strokeColor=#006EAF;arcSize=50;fontFamily=Helvetica;fontSize=11;textOpacity=30;" vertex="1" parent="dDiya7v6H8nqbO7XNTY8-2">
          <mxGeometry x="100" y="67.5" width="35.25" height="25" as="geometry" />
        </mxCell>
        <mxCell id="dDiya7v6H8nqbO7XNTY8-6" value="rwrfn" style="rounded=1;whiteSpace=wrap;sketch=0;points=[[0,0.5,0,0,0],[1,0.5,0,0,0]];arcSize=50;fontFamily=Helvetica;fontSize=11;fontColor=default;" vertex="1" parent="dDiya7v6H8nqbO7XNTY8-2">
          <mxGeometry x="-17" y="92.5" width="66" height="25" as="geometry" />
        </mxCell>
        <mxCell id="dDiya7v6H8nqbO7XNTY8-7" value="input" style="rounded=1;whiteSpace=wrap;sketch=0;points=[[0,0.5,0,0,0],[1,0.5,0,0,0]];arcSize=50;fontFamily=Helvetica;fontSize=11;fontColor=default;" vertex="1" parent="dDiya7v6H8nqbO7XNTY8-2">
          <mxGeometry x="-17" y="167.5" width="66" height="25" as="geometry" />
        </mxCell>
        <mxCell id="dDiya7v6H8nqbO7XNTY8-8" value="grammar name" style="rounded=1;whiteSpace=wrap;sketch=0;points=[[0,0.5,0,0,0],[1,0.5,0,0,0]];arcSize=50;fontFamily=Helvetica;fontSize=11;fontColor=default;" vertex="1" parent="dDiya7v6H8nqbO7XNTY8-2">
          <mxGeometry x="-16" y="27.5" width="66" height="25" as="geometry" />
        </mxCell>
        <mxCell id="dDiya7v6H8nqbO7XNTY8-9" value="rwrsupportfn" style="rounded=1;whiteSpace=wrap;sketch=0;points=[[0,0.5,0,0,0],[1,0.5,0,0,0]];arcSize=50;fontFamily=Helvetica;fontSize=11;fontColor=default;" vertex="1" parent="dDiya7v6H8nqbO7XNTY8-2">
          <mxGeometry x="-17" y="127.5" width="66" height="25" as="geometry" />
        </mxCell>
        <mxCell id="dDiya7v6H8nqbO7XNTY8-10" value="" style="edgeStyle=orthogonalEdgeStyle;shape=connector;rounded=1;jumpStyle=arc;orthogonalLoop=1;jettySize=auto;exitX=1;exitY=0.5;exitDx=0;exitDy=0;exitPerimeter=0;entryX=0;entryY=0.5;entryDx=0;entryDy=0;entryPerimeter=0;labelBackgroundColor=default;strokeColor=#666666;strokeWidth=2;fontFamily=Helvetica;fontSize=11;fontColor=default;endArrow=classic;fillColor=#f5f5f5;opacity=90;" edge="1" parent="dDiya7v6H8nqbO7XNTY8-1" source="dDiya7v6H8nqbO7XNTY8-4" target="dDiya7v6H8nqbO7XNTY8-13">
          <mxGeometry relative="1" as="geometry">
            <mxPoint x="740" y="90" as="targetPoint" />
          </mxGeometry>
        </mxCell>
        <mxCell id="dDiya7v6H8nqbO7XNTY8-11" value="" style="edgeStyle=orthogonalEdgeStyle;shape=connector;rounded=1;jumpStyle=arc;orthogonalLoop=1;jettySize=auto;exitX=1;exitY=0.5;exitDx=0;exitDy=0;exitPerimeter=0;entryX=0;entryY=0.5;entryDx=0;entryDy=0;entryPerimeter=0;labelBackgroundColor=default;strokeColor=#666666;strokeWidth=1;fontFamily=Helvetica;fontSize=11;fontColor=default;endArrow=classic;fillColor=#f5f5f5;opacity=90;" edge="1" parent="dDiya7v6H8nqbO7XNTY8-1" source="dDiya7v6H8nqbO7XNTY8-5" target="dDiya7v6H8nqbO7XNTY8-14">
          <mxGeometry relative="1" as="geometry">
            <mxPoint x="740" y="270" as="targetPoint" />
          </mxGeometry>
        </mxCell>
        <mxCell id="dDiya7v6H8nqbO7XNTY8-12" value="" style="rhombus;rounded=1;fontStyle=1;glass=0;sketch=0;fontSize=12;points=[[0,0.5,0,0,0],[0.5,0,0,0,0],[0.5,1,0,0,0],[1,0.5,0,0,0]];shadow=1;fontFamily=Helvetica;fontColor=default;labelBackgroundColor=none;" vertex="1" parent="dDiya7v6H8nqbO7XNTY8-1">
          <mxGeometry x="50" y="210" width="40" height="40" as="geometry" />
        </mxCell>
        <mxCell id="dDiya7v6H8nqbO7XNTY8-13" value="" style="rhombus;whiteSpace=wrap;rounded=1;fontStyle=1;glass=0;sketch=0;fontSize=12;points=[[0,0.5,0,0,0],[0.5,0,0,0,0],[0.5,1,0,0,0],[1,0.5,0,0,0]];shadow=1;fillColor=#0050ef;fontColor=#ffffff;strokeColor=#001DBC;fontFamily=Helvetica;labelBackgroundColor=none;" vertex="1" parent="dDiya7v6H8nqbO7XNTY8-1">
          <mxGeometry x="710" y="70" width="40" height="40" as="geometry" />
        </mxCell>
        <mxCell id="dDiya7v6H8nqbO7XNTY8-14" value="✗" style="rhombus;whiteSpace=wrap;rounded=1;fillColor=#0050ef;fontColor=#ffffff;strokeColor=#001DBC;fontStyle=1;glass=0;sketch=0;fontSize=12;points=[[0,0.5,0,0,0],[0.5,0,0,0,0],[0.5,1,0,0,0],[1,0.5,0,0,0]];shadow=1;opacity=30;textOpacity=30;labelBackgroundColor=none;" vertex="1" parent="dDiya7v6H8nqbO7XNTY8-1">
          <mxGeometry x="710" y="230" width="40" height="40" as="geometry" />
        </mxCell>
        <mxCell id="dDiya7v6H8nqbO7XNTY8-15" value="" style="edgeStyle=orthogonalEdgeStyle;rounded=1;orthogonalLoop=1;jettySize=auto;exitX=1;exitY=0.5;exitDx=0;exitDy=0;exitPerimeter=0;entryX=0;entryY=0.5;entryDx=0;entryDy=0;entryPerimeter=0;curved=0;opacity=30;" edge="1" parent="dDiya7v6H8nqbO7XNTY8-1" source="dDiya7v6H8nqbO7XNTY8-20" target="dDiya7v6H8nqbO7XNTY8-8">
          <mxGeometry relative="1" as="geometry">
            <Array as="points" />
            <mxPoint x="200" y="90" as="targetPoint" />
          </mxGeometry>
        </mxCell>
        <mxCell id="dDiya7v6H8nqbO7XNTY8-16" value="" style="edgeStyle=orthogonalEdgeStyle;curved=0;rounded=1;orthogonalLoop=1;jettySize=auto;exitX=1;exitY=0.5;exitDx=0;exitDy=0;exitPerimeter=0;entryX=0;entryY=0.5;entryDx=0;entryDy=0;entryPerimeter=0;opacity=30;strokeColor=default;align=center;verticalAlign=middle;fontFamily=Helvetica;fontSize=11;fontColor=default;labelBackgroundColor=default;endArrow=classic;" edge="1" parent="dDiya7v6H8nqbO7XNTY8-1" source="dDiya7v6H8nqbO7XNTY8-21" target="dDiya7v6H8nqbO7XNTY8-3">
          <mxGeometry relative="1" as="geometry">
            <mxPoint x="190" y="120" as="targetPoint" />
          </mxGeometry>
        </mxCell>
        <mxCell id="dDiya7v6H8nqbO7XNTY8-17" value="" style="edgeStyle=orthogonalEdgeStyle;curved=0;rounded=1;orthogonalLoop=1;jettySize=auto;exitX=1;exitY=0.5;exitDx=0;exitDy=0;exitPerimeter=0;entryX=0;entryY=0.5;entryDx=0;entryDy=0;entryPerimeter=0;opacity=30;strokeColor=default;align=center;verticalAlign=middle;fontFamily=Helvetica;fontSize=11;fontColor=default;labelBackgroundColor=default;endArrow=classic;" edge="1" parent="dDiya7v6H8nqbO7XNTY8-1" source="dDiya7v6H8nqbO7XNTY8-22" target="dDiya7v6H8nqbO7XNTY8-6">
          <mxGeometry relative="1" as="geometry">
            <mxPoint x="190" y="155" as="targetPoint" />
          </mxGeometry>
        </mxCell>
        <mxCell id="dDiya7v6H8nqbO7XNTY8-18" value="" style="edgeStyle=orthogonalEdgeStyle;curved=0;rounded=1;orthogonalLoop=1;jettySize=auto;exitX=1;exitY=0.5;exitDx=0;exitDy=0;exitPerimeter=0;entryX=0;entryY=0.5;entryDx=0;entryDy=0;entryPerimeter=0;opacity=30;strokeColor=default;align=center;verticalAlign=middle;fontFamily=Helvetica;fontSize=11;fontColor=default;labelBackgroundColor=default;endArrow=classic;" edge="1" parent="dDiya7v6H8nqbO7XNTY8-1" source="dDiya7v6H8nqbO7XNTY8-23" target="dDiya7v6H8nqbO7XNTY8-9">
          <mxGeometry relative="1" as="geometry">
            <mxPoint x="190" y="190" as="targetPoint" />
          </mxGeometry>
        </mxCell>
        <mxCell id="dDiya7v6H8nqbO7XNTY8-19" value="" style="edgeStyle=orthogonalEdgeStyle;curved=0;rounded=1;orthogonalLoop=1;jettySize=auto;exitX=1;exitY=0.5;exitDx=0;exitDy=0;exitPerimeter=0;entryX=0;entryY=0.5;entryDx=0;entryDy=0;entryPerimeter=0;strokeColor=default;align=center;verticalAlign=middle;fontFamily=Helvetica;fontSize=11;fontColor=default;labelBackgroundColor=default;endArrow=classic;strokeWidth=2;" edge="1" parent="dDiya7v6H8nqbO7XNTY8-1" source="dDiya7v6H8nqbO7XNTY8-12" target="dDiya7v6H8nqbO7XNTY8-7">
          <mxGeometry relative="1" as="geometry" />
        </mxCell>
        <mxCell id="dDiya7v6H8nqbO7XNTY8-20" value="grammar&#xa;name" style="rhombus;rounded=1;fontStyle=1;glass=0;sketch=0;fontSize=9;points=[[0,0.5,0,0,0],[0.5,0,0,0,0],[0.5,1,0,0,0],[1,0.5,0,0,0]];shadow=1;fontFamily=Helvetica;fontColor=default;" vertex="1" parent="dDiya7v6H8nqbO7XNTY8-1">
          <mxGeometry x="40" y="70" width="40" height="40" as="geometry" />
        </mxCell>
        <mxCell id="dDiya7v6H8nqbO7XNTY8-21" value="ohm" style="rhombus;rounded=1;fontStyle=1;glass=0;sketch=0;fontSize=9;points=[[0,0.5,0,0,0],[0.5,0,0,0,0],[0.5,1,0,0,0],[1,0.5,0,0,0]];shadow=1;fontFamily=Helvetica;fontColor=default;" vertex="1" parent="dDiya7v6H8nqbO7XNTY8-1">
          <mxGeometry x="60" y="100" width="40" height="40" as="geometry" />
        </mxCell>
        <mxCell id="dDiya7v6H8nqbO7XNTY8-22" value="rwr" style="rhombus;rounded=1;fontStyle=1;glass=0;sketch=0;fontSize=9;points=[[0,0.5,0,0,0],[0.5,0,0,0,0],[0.5,1,0,0,0],[1,0.5,0,0,0]];shadow=1;fontFamily=Helvetica;fontColor=default;" vertex="1" parent="dDiya7v6H8nqbO7XNTY8-1">
          <mxGeometry x="40" y="135" width="40" height="40" as="geometry" />
        </mxCell>
        <mxCell id="dDiya7v6H8nqbO7XNTY8-23" value="support" style="rhombus;rounded=1;fontStyle=1;glass=0;sketch=0;fontSize=9;points=[[0,0.5,0,0,0],[0.5,0,0,0,0],[0.5,1,0,0,0],[1,0.5,0,0,0]];shadow=1;fontFamily=Helvetica;fontColor=default;" vertex="1" parent="dDiya7v6H8nqbO7XNTY8-1">
          <mxGeometry x="70" y="170" width="40" height="40" as="geometry" />
        </mxCell>
      </root>
    </mxGraphModel>
  </diagram>
  <diagram name="pass3" id="uW6dO9wEJ7gQE90fz8C_">
    <mxGraphModel dx="1050" dy="583" grid="1" gridSize="10" guides="1" tooltips="1" connect="1" arrows="1" fold="1" page="1" pageScale="1" pageWidth="850" pageHeight="1100" math="0" shadow="0">
      <root>
        <mxCell id="Pd127tqYXcmK47Kn2s8Z-0" />
        <mxCell id="Pd127tqYXcmK47Kn2s8Z-1" parent="Pd127tqYXcmK47Kn2s8Z-0" />
        <mxCell id="Pd127tqYXcmK47Kn2s8Z-2" value="Transpile" style="rounded=1;whiteSpace=wrap;sketch=0;container=1;recursiveResize=0;verticalAlign=top;arcSize=6;fontStyle=1;autosize=0;points=[];absoluteArcSize=1;shadow=1;strokeColor=#001DBC;fillColor=#0050ef;fontColor=#ffffff;fontFamily=Helvetica;fontSize=11;" vertex="1" parent="Pd127tqYXcmK47Kn2s8Z-1">
          <mxGeometry x="490" y="50" width="130" height="210" as="geometry">
            <mxRectangle x="-98" y="-1230" width="99" height="26" as="alternateBounds" />
          </mxGeometry>
        </mxCell>
        <mxCell id="Pd127tqYXcmK47Kn2s8Z-3" value="ohmfn" style="rounded=1;whiteSpace=wrap;sketch=0;points=[[0,0.5,0,0,0],[1,0.5,0,0,0]];arcSize=50;fontFamily=Helvetica;fontSize=11;fontColor=default;fontStyle=0" vertex="1" parent="Pd127tqYXcmK47Kn2s8Z-2">
          <mxGeometry x="-17" y="57.5" width="66" height="25" as="geometry" />
        </mxCell>
        <mxCell id="Pd127tqYXcmK47Kn2s8Z-4" value="" style="rounded=1;whiteSpace=wrap;sketch=0;points=[[0,0.5,0,0,0],[1,0.5,0,0,0]];fillColor=#1ba1e2;fontColor=#ffffff;strokeColor=#006EAF;arcSize=50;fontFamily=Helvetica;fontSize=11;" vertex="1" parent="Pd127tqYXcmK47Kn2s8Z-2">
          <mxGeometry x="100" y="27.5" width="35.25" height="25" as="geometry" />
        </mxCell>
        <mxCell id="Pd127tqYXcmK47Kn2s8Z-5" value="✗" style="rounded=1;whiteSpace=wrap;sketch=0;points=[[0,0.5,0,0,0],[1,0.5,0,0,0]];fillColor=#1ba1e2;fontColor=#ffffff;strokeColor=#006EAF;arcSize=50;fontFamily=Helvetica;fontSize=11;textOpacity=30;" vertex="1" parent="Pd127tqYXcmK47Kn2s8Z-2">
          <mxGeometry x="100" y="67.5" width="35.25" height="25" as="geometry" />
        </mxCell>
        <mxCell id="Pd127tqYXcmK47Kn2s8Z-6" value="rwrfn" style="rounded=1;whiteSpace=wrap;sketch=0;points=[[0,0.5,0,0,0],[1,0.5,0,0,0]];arcSize=50;fontFamily=Helvetica;fontSize=11;fontColor=default;" vertex="1" parent="Pd127tqYXcmK47Kn2s8Z-2">
          <mxGeometry x="-17" y="92.5" width="66" height="25" as="geometry" />
        </mxCell>
        <mxCell id="Pd127tqYXcmK47Kn2s8Z-7" value="input" style="rounded=1;whiteSpace=wrap;sketch=0;points=[[0,0.5,0,0,0],[1,0.5,0,0,0]];arcSize=50;fontFamily=Helvetica;fontSize=11;fontColor=default;" vertex="1" parent="Pd127tqYXcmK47Kn2s8Z-2">
          <mxGeometry x="-17" y="167.5" width="66" height="25" as="geometry" />
        </mxCell>
        <mxCell id="Pd127tqYXcmK47Kn2s8Z-8" value="grammar name" style="rounded=1;whiteSpace=wrap;sketch=0;points=[[0,0.5,0,0,0],[1,0.5,0,0,0]];arcSize=50;fontFamily=Helvetica;fontSize=11;fontColor=default;" vertex="1" parent="Pd127tqYXcmK47Kn2s8Z-2">
          <mxGeometry x="-16" y="27.5" width="66" height="25" as="geometry" />
        </mxCell>
        <mxCell id="Pd127tqYXcmK47Kn2s8Z-9" value="rwrsupportfn" style="rounded=1;whiteSpace=wrap;sketch=0;points=[[0,0.5,0,0,0],[1,0.5,0,0,0]];arcSize=50;fontFamily=Helvetica;fontSize=11;fontColor=default;" vertex="1" parent="Pd127tqYXcmK47Kn2s8Z-2">
          <mxGeometry x="-17" y="127.5" width="66" height="25" as="geometry" />
        </mxCell>
        <mxCell id="Pd127tqYXcmK47Kn2s8Z-10" value="" style="edgeStyle=orthogonalEdgeStyle;shape=connector;rounded=1;jumpStyle=arc;orthogonalLoop=1;jettySize=auto;exitX=1;exitY=0.5;exitDx=0;exitDy=0;exitPerimeter=0;entryX=0;entryY=0.5;entryDx=0;entryDy=0;entryPerimeter=0;labelBackgroundColor=default;strokeColor=#666666;strokeWidth=2;fontFamily=Helvetica;fontSize=11;fontColor=default;endArrow=classic;fillColor=#f5f5f5;opacity=90;" edge="1" parent="Pd127tqYXcmK47Kn2s8Z-1" source="Pd127tqYXcmK47Kn2s8Z-4" target="Pd127tqYXcmK47Kn2s8Z-13">
          <mxGeometry relative="1" as="geometry">
            <mxPoint x="740" y="90" as="targetPoint" />
          </mxGeometry>
        </mxCell>
        <mxCell id="Pd127tqYXcmK47Kn2s8Z-11" value="" style="edgeStyle=orthogonalEdgeStyle;shape=connector;rounded=1;jumpStyle=arc;orthogonalLoop=1;jettySize=auto;exitX=1;exitY=0.5;exitDx=0;exitDy=0;exitPerimeter=0;entryX=0;entryY=0.5;entryDx=0;entryDy=0;entryPerimeter=0;labelBackgroundColor=default;strokeColor=#666666;strokeWidth=1;fontFamily=Helvetica;fontSize=11;fontColor=default;endArrow=classic;fillColor=#f5f5f5;opacity=90;" edge="1" parent="Pd127tqYXcmK47Kn2s8Z-1" source="Pd127tqYXcmK47Kn2s8Z-5" target="Pd127tqYXcmK47Kn2s8Z-14">
          <mxGeometry relative="1" as="geometry">
            <mxPoint x="740" y="270" as="targetPoint" />
          </mxGeometry>
        </mxCell>
        <mxCell id="Pd127tqYXcmK47Kn2s8Z-12" value="" style="rhombus;rounded=1;fontStyle=1;glass=0;sketch=0;fontSize=12;points=[[0,0.5,0,0,0],[0.5,0,0,0,0],[0.5,1,0,0,0],[1,0.5,0,0,0]];shadow=1;fontFamily=Helvetica;fontColor=default;labelBackgroundColor=none;" vertex="1" parent="Pd127tqYXcmK47Kn2s8Z-1">
          <mxGeometry x="50" y="210" width="40" height="40" as="geometry" />
        </mxCell>
        <mxCell id="Pd127tqYXcmK47Kn2s8Z-13" value="" style="rhombus;whiteSpace=wrap;rounded=1;fontStyle=1;glass=0;sketch=0;fontSize=12;points=[[0,0.5,0,0,0],[0.5,0,0,0,0],[0.5,1,0,0,0],[1,0.5,0,0,0]];shadow=1;fillColor=#0050ef;fontColor=#ffffff;strokeColor=#001DBC;fontFamily=Helvetica;labelBackgroundColor=none;" vertex="1" parent="Pd127tqYXcmK47Kn2s8Z-1">
          <mxGeometry x="710" y="70" width="40" height="40" as="geometry" />
        </mxCell>
        <mxCell id="Pd127tqYXcmK47Kn2s8Z-14" value="✗" style="rhombus;whiteSpace=wrap;rounded=1;fillColor=#0050ef;fontColor=#ffffff;strokeColor=#001DBC;fontStyle=1;glass=0;sketch=0;fontSize=12;points=[[0,0.5,0,0,0],[0.5,0,0,0,0],[0.5,1,0,0,0],[1,0.5,0,0,0]];shadow=1;opacity=30;textOpacity=30;labelBackgroundColor=none;" vertex="1" parent="Pd127tqYXcmK47Kn2s8Z-1">
          <mxGeometry x="710" y="230" width="40" height="40" as="geometry" />
        </mxCell>
        <mxCell id="Pd127tqYXcmK47Kn2s8Z-15" value="" style="edgeStyle=orthogonalEdgeStyle;rounded=1;orthogonalLoop=1;jettySize=auto;exitX=1;exitY=0.5;exitDx=0;exitDy=0;exitPerimeter=0;entryX=0;entryY=0.5;entryDx=0;entryDy=0;entryPerimeter=0;curved=0;opacity=30;" edge="1" parent="Pd127tqYXcmK47Kn2s8Z-1" source="Pd127tqYXcmK47Kn2s8Z-20" target="Pd127tqYXcmK47Kn2s8Z-8">
          <mxGeometry relative="1" as="geometry">
            <Array as="points" />
            <mxPoint x="200" y="90" as="targetPoint" />
          </mxGeometry>
        </mxCell>
        <mxCell id="Pd127tqYXcmK47Kn2s8Z-16" value="" style="edgeStyle=orthogonalEdgeStyle;curved=0;rounded=1;orthogonalLoop=1;jettySize=auto;exitX=1;exitY=0.5;exitDx=0;exitDy=0;exitPerimeter=0;entryX=0;entryY=0.5;entryDx=0;entryDy=0;entryPerimeter=0;opacity=30;strokeColor=default;align=center;verticalAlign=middle;fontFamily=Helvetica;fontSize=11;fontColor=default;labelBackgroundColor=default;endArrow=classic;" edge="1" parent="Pd127tqYXcmK47Kn2s8Z-1" source="Pd127tqYXcmK47Kn2s8Z-21" target="Pd127tqYXcmK47Kn2s8Z-3">
          <mxGeometry relative="1" as="geometry">
            <mxPoint x="190" y="120" as="targetPoint" />
          </mxGeometry>
        </mxCell>
        <mxCell id="Pd127tqYXcmK47Kn2s8Z-17" value="" style="edgeStyle=orthogonalEdgeStyle;curved=0;rounded=1;orthogonalLoop=1;jettySize=auto;exitX=1;exitY=0.5;exitDx=0;exitDy=0;exitPerimeter=0;entryX=0;entryY=0.5;entryDx=0;entryDy=0;entryPerimeter=0;opacity=30;strokeColor=default;align=center;verticalAlign=middle;fontFamily=Helvetica;fontSize=11;fontColor=default;labelBackgroundColor=default;endArrow=classic;" edge="1" parent="Pd127tqYXcmK47Kn2s8Z-1" source="Pd127tqYXcmK47Kn2s8Z-22" target="Pd127tqYXcmK47Kn2s8Z-6">
          <mxGeometry relative="1" as="geometry">
            <mxPoint x="190" y="155" as="targetPoint" />
          </mxGeometry>
        </mxCell>
        <mxCell id="Pd127tqYXcmK47Kn2s8Z-18" value="" style="edgeStyle=orthogonalEdgeStyle;curved=0;rounded=1;orthogonalLoop=1;jettySize=auto;exitX=1;exitY=0.5;exitDx=0;exitDy=0;exitPerimeter=0;entryX=0;entryY=0.5;entryDx=0;entryDy=0;entryPerimeter=0;opacity=30;strokeColor=default;align=center;verticalAlign=middle;fontFamily=Helvetica;fontSize=11;fontColor=default;labelBackgroundColor=default;endArrow=classic;" edge="1" parent="Pd127tqYXcmK47Kn2s8Z-1" source="Pd127tqYXcmK47Kn2s8Z-23" target="Pd127tqYXcmK47Kn2s8Z-9">
          <mxGeometry relative="1" as="geometry">
            <mxPoint x="190" y="190" as="targetPoint" />
          </mxGeometry>
        </mxCell>
        <mxCell id="Pd127tqYXcmK47Kn2s8Z-19" value="" style="edgeStyle=orthogonalEdgeStyle;curved=0;rounded=1;orthogonalLoop=1;jettySize=auto;exitX=1;exitY=0.5;exitDx=0;exitDy=0;exitPerimeter=0;entryX=0;entryY=0.5;entryDx=0;entryDy=0;entryPerimeter=0;strokeColor=default;align=center;verticalAlign=middle;fontFamily=Helvetica;fontSize=11;fontColor=default;labelBackgroundColor=default;endArrow=classic;strokeWidth=2;" edge="1" parent="Pd127tqYXcmK47Kn2s8Z-1" source="Pd127tqYXcmK47Kn2s8Z-12" target="Pd127tqYXcmK47Kn2s8Z-7">
          <mxGeometry relative="1" as="geometry" />
        </mxCell>
        <mxCell id="Pd127tqYXcmK47Kn2s8Z-20" value="grammar&#xa;name" style="rhombus;rounded=1;fontStyle=1;glass=0;sketch=0;fontSize=9;points=[[0,0.5,0,0,0],[0.5,0,0,0,0],[0.5,1,0,0,0],[1,0.5,0,0,0]];shadow=1;fontFamily=Helvetica;fontColor=default;" vertex="1" parent="Pd127tqYXcmK47Kn2s8Z-1">
          <mxGeometry x="40" y="70" width="40" height="40" as="geometry" />
        </mxCell>
        <mxCell id="Pd127tqYXcmK47Kn2s8Z-21" value="ohm" style="rhombus;rounded=1;fontStyle=1;glass=0;sketch=0;fontSize=9;points=[[0,0.5,0,0,0],[0.5,0,0,0,0],[0.5,1,0,0,0],[1,0.5,0,0,0]];shadow=1;fontFamily=Helvetica;fontColor=default;" vertex="1" parent="Pd127tqYXcmK47Kn2s8Z-1">
          <mxGeometry x="60" y="100" width="40" height="40" as="geometry" />
        </mxCell>
        <mxCell id="Pd127tqYXcmK47Kn2s8Z-22" value="rwr" style="rhombus;rounded=1;fontStyle=1;glass=0;sketch=0;fontSize=9;points=[[0,0.5,0,0,0],[0.5,0,0,0,0],[0.5,1,0,0,0],[1,0.5,0,0,0]];shadow=1;fontFamily=Helvetica;fontColor=default;" vertex="1" parent="Pd127tqYXcmK47Kn2s8Z-1">
          <mxGeometry x="40" y="135" width="40" height="40" as="geometry" />
        </mxCell>
        <mxCell id="Pd127tqYXcmK47Kn2s8Z-23" value="support" style="rhombus;rounded=1;fontStyle=1;glass=0;sketch=0;fontSize=9;points=[[0,0.5,0,0,0],[0.5,0,0,0,0],[0.5,1,0,0,0],[1,0.5,0,0,0]];shadow=1;fontFamily=Helvetica;fontColor=default;" vertex="1" parent="Pd127tqYXcmK47Kn2s8Z-1">
          <mxGeometry x="70" y="170" width="40" height="40" as="geometry" />
        </mxCell>
      </root>
    </mxGraphModel>
  </diagram>
  <diagram name="peephole" id="cnZ_keJtOFg-St9aPHF8">
    <mxGraphModel dx="1050" dy="713" grid="1" gridSize="10" guides="1" tooltips="1" connect="1" arrows="1" fold="1" page="1" pageScale="1" pageWidth="850" pageHeight="1100" math="0" shadow="0">
      <root>
        <mxCell id="gP6u7NZwgF46wwcgYN2L-0" />
        <mxCell id="gP6u7NZwgF46wwcgYN2L-1" parent="gP6u7NZwgF46wwcgYN2L-0" />
        <mxCell id="gP6u7NZwgF46wwcgYN2L-2" value="Transpile" style="rounded=1;whiteSpace=wrap;sketch=0;container=1;recursiveResize=0;verticalAlign=top;arcSize=6;fontStyle=1;autosize=0;points=[];absoluteArcSize=1;shadow=1;strokeColor=#001DBC;fillColor=#0050ef;fontColor=#ffffff;fontFamily=Helvetica;fontSize=11;" vertex="1" parent="gP6u7NZwgF46wwcgYN2L-1">
          <mxGeometry x="490" y="50" width="130" height="210" as="geometry">
            <mxRectangle x="-98" y="-1230" width="99" height="26" as="alternateBounds" />
          </mxGeometry>
        </mxCell>
        <mxCell id="gP6u7NZwgF46wwcgYN2L-3" value="ohmfn" style="rounded=1;whiteSpace=wrap;sketch=0;points=[[0,0.5,0,0,0],[1,0.5,0,0,0]];arcSize=50;fontFamily=Helvetica;fontSize=11;fontColor=default;fontStyle=0" vertex="1" parent="gP6u7NZwgF46wwcgYN2L-2">
          <mxGeometry x="-17" y="57.5" width="66" height="25" as="geometry" />
        </mxCell>
        <mxCell id="gP6u7NZwgF46wwcgYN2L-4" value="" style="rounded=1;whiteSpace=wrap;sketch=0;points=[[0,0.5,0,0,0],[1,0.5,0,0,0]];fillColor=#1ba1e2;fontColor=#ffffff;strokeColor=#006EAF;arcSize=50;fontFamily=Helvetica;fontSize=11;" vertex="1" parent="gP6u7NZwgF46wwcgYN2L-2">
          <mxGeometry x="100" y="27.5" width="35.25" height="25" as="geometry" />
        </mxCell>
        <mxCell id="gP6u7NZwgF46wwcgYN2L-5" value="✗" style="rounded=1;whiteSpace=wrap;sketch=0;points=[[0,0.5,0,0,0],[1,0.5,0,0,0]];fillColor=#1ba1e2;fontColor=#ffffff;strokeColor=#006EAF;arcSize=50;fontFamily=Helvetica;fontSize=11;textOpacity=30;" vertex="1" parent="gP6u7NZwgF46wwcgYN2L-2">
          <mxGeometry x="100" y="67.5" width="35.25" height="25" as="geometry" />
        </mxCell>
        <mxCell id="gP6u7NZwgF46wwcgYN2L-6" value="rwrfn" style="rounded=1;whiteSpace=wrap;sketch=0;points=[[0,0.5,0,0,0],[1,0.5,0,0,0]];arcSize=50;fontFamily=Helvetica;fontSize=11;fontColor=default;" vertex="1" parent="gP6u7NZwgF46wwcgYN2L-2">
          <mxGeometry x="-17" y="92.5" width="66" height="25" as="geometry" />
        </mxCell>
        <mxCell id="gP6u7NZwgF46wwcgYN2L-7" value="input" style="rounded=1;whiteSpace=wrap;sketch=0;points=[[0,0.5,0,0,0],[1,0.5,0,0,0]];arcSize=50;fontFamily=Helvetica;fontSize=11;fontColor=default;" vertex="1" parent="gP6u7NZwgF46wwcgYN2L-2">
          <mxGeometry x="-17" y="167.5" width="66" height="25" as="geometry" />
        </mxCell>
        <mxCell id="gP6u7NZwgF46wwcgYN2L-8" value="grammar name" style="rounded=1;whiteSpace=wrap;sketch=0;points=[[0,0.5,0,0,0],[1,0.5,0,0,0]];arcSize=50;fontFamily=Helvetica;fontSize=11;fontColor=default;" vertex="1" parent="gP6u7NZwgF46wwcgYN2L-2">
          <mxGeometry x="-16" y="27.5" width="66" height="25" as="geometry" />
        </mxCell>
        <mxCell id="gP6u7NZwgF46wwcgYN2L-9" value="rwrsupportfn" style="rounded=1;whiteSpace=wrap;sketch=0;points=[[0,0.5,0,0,0],[1,0.5,0,0,0]];arcSize=50;fontFamily=Helvetica;fontSize=11;fontColor=default;" vertex="1" parent="gP6u7NZwgF46wwcgYN2L-2">
          <mxGeometry x="-17" y="127.5" width="66" height="25" as="geometry" />
        </mxCell>
        <mxCell id="gP6u7NZwgF46wwcgYN2L-10" value="" style="edgeStyle=orthogonalEdgeStyle;shape=connector;rounded=1;jumpStyle=arc;orthogonalLoop=1;jettySize=auto;exitX=1;exitY=0.5;exitDx=0;exitDy=0;exitPerimeter=0;entryX=0;entryY=0.5;entryDx=0;entryDy=0;entryPerimeter=0;labelBackgroundColor=default;strokeColor=#666666;strokeWidth=2;fontFamily=Helvetica;fontSize=11;fontColor=default;endArrow=classic;fillColor=#f5f5f5;opacity=90;" edge="1" parent="gP6u7NZwgF46wwcgYN2L-1" source="gP6u7NZwgF46wwcgYN2L-4" target="gP6u7NZwgF46wwcgYN2L-13">
          <mxGeometry relative="1" as="geometry">
            <mxPoint x="740" y="90" as="targetPoint" />
          </mxGeometry>
        </mxCell>
        <mxCell id="gP6u7NZwgF46wwcgYN2L-11" value="" style="edgeStyle=orthogonalEdgeStyle;shape=connector;rounded=1;jumpStyle=arc;orthogonalLoop=1;jettySize=auto;exitX=1;exitY=0.5;exitDx=0;exitDy=0;exitPerimeter=0;entryX=0;entryY=0.5;entryDx=0;entryDy=0;entryPerimeter=0;labelBackgroundColor=default;strokeColor=#666666;strokeWidth=1;fontFamily=Helvetica;fontSize=11;fontColor=default;endArrow=classic;fillColor=#f5f5f5;opacity=90;" edge="1" parent="gP6u7NZwgF46wwcgYN2L-1" source="gP6u7NZwgF46wwcgYN2L-5" target="gP6u7NZwgF46wwcgYN2L-14">
          <mxGeometry relative="1" as="geometry">
            <mxPoint x="740" y="270" as="targetPoint" />
          </mxGeometry>
        </mxCell>
        <mxCell id="gP6u7NZwgF46wwcgYN2L-12" value="" style="rhombus;rounded=1;fontStyle=1;glass=0;sketch=0;fontSize=12;points=[[0,0.5,0,0,0],[0.5,0,0,0,0],[0.5,1,0,0,0],[1,0.5,0,0,0]];shadow=1;fontFamily=Helvetica;fontColor=default;labelBackgroundColor=none;" vertex="1" parent="gP6u7NZwgF46wwcgYN2L-1">
          <mxGeometry x="50" y="210" width="40" height="40" as="geometry" />
        </mxCell>
        <mxCell id="gP6u7NZwgF46wwcgYN2L-13" value="" style="rhombus;whiteSpace=wrap;rounded=1;fontStyle=1;glass=0;sketch=0;fontSize=12;points=[[0,0.5,0,0,0],[0.5,0,0,0,0],[0.5,1,0,0,0],[1,0.5,0,0,0]];shadow=1;fillColor=#0050ef;fontColor=#ffffff;strokeColor=#001DBC;fontFamily=Helvetica;labelBackgroundColor=none;" vertex="1" parent="gP6u7NZwgF46wwcgYN2L-1">
          <mxGeometry x="710" y="70" width="40" height="40" as="geometry" />
        </mxCell>
        <mxCell id="gP6u7NZwgF46wwcgYN2L-14" value="✗" style="rhombus;whiteSpace=wrap;rounded=1;fillColor=#0050ef;fontColor=#ffffff;strokeColor=#001DBC;fontStyle=1;glass=0;sketch=0;fontSize=12;points=[[0,0.5,0,0,0],[0.5,0,0,0,0],[0.5,1,0,0,0],[1,0.5,0,0,0]];shadow=1;opacity=30;textOpacity=30;labelBackgroundColor=none;" vertex="1" parent="gP6u7NZwgF46wwcgYN2L-1">
          <mxGeometry x="710" y="230" width="40" height="40" as="geometry" />
        </mxCell>
        <mxCell id="gP6u7NZwgF46wwcgYN2L-15" value="" style="edgeStyle=orthogonalEdgeStyle;rounded=1;orthogonalLoop=1;jettySize=auto;exitX=1;exitY=0.5;exitDx=0;exitDy=0;exitPerimeter=0;entryX=0;entryY=0.5;entryDx=0;entryDy=0;entryPerimeter=0;curved=0;opacity=30;" edge="1" parent="gP6u7NZwgF46wwcgYN2L-1" source="gP6u7NZwgF46wwcgYN2L-20" target="gP6u7NZwgF46wwcgYN2L-8">
          <mxGeometry relative="1" as="geometry">
            <Array as="points" />
            <mxPoint x="200" y="90" as="targetPoint" />
          </mxGeometry>
        </mxCell>
        <mxCell id="gP6u7NZwgF46wwcgYN2L-16" value="" style="edgeStyle=orthogonalEdgeStyle;curved=0;rounded=1;orthogonalLoop=1;jettySize=auto;exitX=1;exitY=0.5;exitDx=0;exitDy=0;exitPerimeter=0;entryX=0;entryY=0.5;entryDx=0;entryDy=0;entryPerimeter=0;opacity=30;strokeColor=default;align=center;verticalAlign=middle;fontFamily=Helvetica;fontSize=11;fontColor=default;labelBackgroundColor=default;endArrow=classic;" edge="1" parent="gP6u7NZwgF46wwcgYN2L-1" source="gP6u7NZwgF46wwcgYN2L-21" target="gP6u7NZwgF46wwcgYN2L-3">
          <mxGeometry relative="1" as="geometry">
            <mxPoint x="190" y="120" as="targetPoint" />
          </mxGeometry>
        </mxCell>
        <mxCell id="gP6u7NZwgF46wwcgYN2L-17" value="" style="edgeStyle=orthogonalEdgeStyle;curved=0;rounded=1;orthogonalLoop=1;jettySize=auto;exitX=1;exitY=0.5;exitDx=0;exitDy=0;exitPerimeter=0;entryX=0;entryY=0.5;entryDx=0;entryDy=0;entryPerimeter=0;opacity=30;strokeColor=default;align=center;verticalAlign=middle;fontFamily=Helvetica;fontSize=11;fontColor=default;labelBackgroundColor=default;endArrow=classic;" edge="1" parent="gP6u7NZwgF46wwcgYN2L-1" source="gP6u7NZwgF46wwcgYN2L-22" target="gP6u7NZwgF46wwcgYN2L-6">
          <mxGeometry relative="1" as="geometry">
            <mxPoint x="190" y="155" as="targetPoint" />
          </mxGeometry>
        </mxCell>
        <mxCell id="gP6u7NZwgF46wwcgYN2L-18" value="" style="edgeStyle=orthogonalEdgeStyle;curved=0;rounded=1;orthogonalLoop=1;jettySize=auto;exitX=1;exitY=0.5;exitDx=0;exitDy=0;exitPerimeter=0;entryX=0;entryY=0.5;entryDx=0;entryDy=0;entryPerimeter=0;opacity=30;strokeColor=default;align=center;verticalAlign=middle;fontFamily=Helvetica;fontSize=11;fontColor=default;labelBackgroundColor=default;endArrow=classic;" edge="1" parent="gP6u7NZwgF46wwcgYN2L-1" source="gP6u7NZwgF46wwcgYN2L-23" target="gP6u7NZwgF46wwcgYN2L-9">
          <mxGeometry relative="1" as="geometry">
            <mxPoint x="190" y="190" as="targetPoint" />
          </mxGeometry>
        </mxCell>
        <mxCell id="gP6u7NZwgF46wwcgYN2L-19" value="" style="edgeStyle=orthogonalEdgeStyle;curved=0;rounded=1;orthogonalLoop=1;jettySize=auto;exitX=1;exitY=0.5;exitDx=0;exitDy=0;exitPerimeter=0;entryX=0;entryY=0.5;entryDx=0;entryDy=0;entryPerimeter=0;strokeColor=default;align=center;verticalAlign=middle;fontFamily=Helvetica;fontSize=11;fontColor=default;labelBackgroundColor=default;endArrow=classic;strokeWidth=2;" edge="1" parent="gP6u7NZwgF46wwcgYN2L-1" source="gP6u7NZwgF46wwcgYN2L-12" target="gP6u7NZwgF46wwcgYN2L-7">
          <mxGeometry relative="1" as="geometry" />
        </mxCell>
        <mxCell id="gP6u7NZwgF46wwcgYN2L-20" value="grammar&#xa;name" style="rhombus;rounded=1;fontStyle=1;glass=0;sketch=0;fontSize=9;points=[[0,0.5,0,0,0],[0.5,0,0,0,0],[0.5,1,0,0,0],[1,0.5,0,0,0]];shadow=1;fontFamily=Helvetica;fontColor=default;" vertex="1" parent="gP6u7NZwgF46wwcgYN2L-1">
          <mxGeometry x="40" y="70" width="40" height="40" as="geometry" />
        </mxCell>
        <mxCell id="gP6u7NZwgF46wwcgYN2L-21" value="ohm" style="rhombus;rounded=1;fontStyle=1;glass=0;sketch=0;fontSize=9;points=[[0,0.5,0,0,0],[0.5,0,0,0,0],[0.5,1,0,0,0],[1,0.5,0,0,0]];shadow=1;fontFamily=Helvetica;fontColor=default;" vertex="1" parent="gP6u7NZwgF46wwcgYN2L-1">
          <mxGeometry x="60" y="100" width="40" height="40" as="geometry" />
        </mxCell>
        <mxCell id="gP6u7NZwgF46wwcgYN2L-22" value="rwr" style="rhombus;rounded=1;fontStyle=1;glass=0;sketch=0;fontSize=9;points=[[0,0.5,0,0,0],[0.5,0,0,0,0],[0.5,1,0,0,0],[1,0.5,0,0,0]];shadow=1;fontFamily=Helvetica;fontColor=default;" vertex="1" parent="gP6u7NZwgF46wwcgYN2L-1">
          <mxGeometry x="40" y="135" width="40" height="40" as="geometry" />
        </mxCell>
        <mxCell id="gP6u7NZwgF46wwcgYN2L-23" value="support" style="rhombus;rounded=1;fontStyle=1;glass=0;sketch=0;fontSize=9;points=[[0,0.5,0,0,0],[0.5,0,0,0,0],[0.5,1,0,0,0],[1,0.5,0,0,0]];shadow=1;fontFamily=Helvetica;fontColor=default;" vertex="1" parent="gP6u7NZwgF46wwcgYN2L-1">
          <mxGeometry x="70" y="170" width="40" height="40" as="geometry" />
        </mxCell>
      </root>
    </mxGraphModel>
  </diagram>
</mxfile>
